<?xml version="1.0" encoding="UTF-8" standalone="no"?>
<!-- Created with Inkscape (http://www.inkscape.org/) -->

<svg
   xmlns:dc="http://purl.org/dc/elements/1.1/"
   xmlns:cc="http://creativecommons.org/ns#"
   xmlns:rdf="http://www.w3.org/1999/02/22-rdf-syntax-ns#"
   xmlns:svg="http://www.w3.org/2000/svg"
   xmlns="http://www.w3.org/2000/svg"
   xmlns:sodipodi="http://sodipodi.sourceforge.net/DTD/sodipodi-0.dtd"
   xmlns:inkscape="http://www.inkscape.org/namespaces/inkscape"
   width="272.75873"
   height="167.04875"
   id="svg2"
   version="1.1"
   inkscape:version="0.48.4 r9939"
   sodipodi:docname="New document 1">
  <defs
     id="defs4">
    <clipPath
       id="clipPath4239"
       clipPathUnits="userSpaceOnUse">
      <path
         id="path4241"
         d="m 327.582,581.043 218.209,0 0,133.638 -218.209,0 0,-133.638"
         inkscape:connector-curvature="0" />
    </clipPath>
    <clipPath
       id="clipPath4125"
       clipPathUnits="userSpaceOnUse">
      <path
         id="path4127"
         d="m 327.582,581.043 218.209,0 0,133.638 -218.209,0 0,-133.638"
         inkscape:connector-curvature="0" />
    </clipPath>
    <clipPath
       id="clipPath4023"
       clipPathUnits="userSpaceOnUse">
      <path
         id="path4025"
         d="m 327.582,581.043 218.209,0 0,133.638 -218.209,0 0,-133.638"
         inkscape:connector-curvature="0" />
    </clipPath>
    <clipPath
       id="clipPath3999"
       clipPathUnits="userSpaceOnUse">
      <path
         id="path4001"
         d="m 327.582,581.043 218.209,0 0,133.638 -218.209,0 0,-133.638"
         inkscape:connector-curvature="0" />
    </clipPath>
    <clipPath
       id="clipPath3901"
       clipPathUnits="userSpaceOnUse">
      <path
         id="path3903"
         d="m 327.582,581.043 218.209,0 0,133.638 -218.209,0 0,-133.638"
         inkscape:connector-curvature="0" />
    </clipPath>
    <clipPath
       id="clipPath3787"
       clipPathUnits="userSpaceOnUse">
      <path
         id="path3789"
         d="m 327.582,581.043 218.209,0 0,133.638 -218.209,0 0,-133.638"
         inkscape:connector-curvature="0" />
    </clipPath>
    <clipPath
       id="clipPath3767"
       clipPathUnits="userSpaceOnUse">
      <path
         id="path3769"
         d="m 327.582,581.043 218.209,0 0,133.638 -218.209,0 0,-133.638"
         inkscape:connector-curvature="0" />
    </clipPath>
    <clipPath
       id="clipPath3749"
       clipPathUnits="userSpaceOnUse">
      <path
         id="path3751"
         d="m 327.582,581.043 218.209,0 0,133.638 -218.209,0 0,-133.638"
         inkscape:connector-curvature="0" />
    </clipPath>
    <clipPath
       id="clipPath3153"
       clipPathUnits="userSpaceOnUse">
      <path
         id="path3155"
         d="m 64.566,637.041 218.201,0 0,77.558 -218.201,0 0,-77.558"
         inkscape:connector-curvature="0" />
    </clipPath>
  </defs>
  <sodipodi:namedview
     id="base"
     pagecolor="#ffffff"
     bordercolor="#666666"
     borderopacity="1.0"
     inkscape:pageopacity="0.0"
     inkscape:pageshadow="2"
     inkscape:zoom="5.3277861"
     inkscape:cx="136.37936"
     inkscape:cy="83.524375"
     inkscape:document-units="px"
     inkscape:current-layer="layer1"
     showgrid="false"
     fit-margin-top="0"
     fit-margin-left="0"
     fit-margin-right="0"
     fit-margin-bottom="0"
     inkscape:window-width="1855"
     inkscape:window-height="1056"
     inkscape:window-x="1425"
     inkscape:window-y="24"
     inkscape:window-maximized="1" />
  <metadata
     id="metadata7">
    <rdf:RDF>
      <cc:Work
         rdf:about="">
        <dc:format>image/svg+xml</dc:format>
        <dc:type
           rdf:resource="http://purl.org/dc/dcmitype/StillImage" />
        <dc:title></dc:title>
      </cc:Work>
    </rdf:RDF>
  </metadata>
  <g
     inkscape:label="Layer 1"
     inkscape:groupmode="layer"
     id="layer1"
     transform="translate(-183.41894,-103.41012)">
    <text
       id="text3387"
       x="-566.13062"
       y="310.44235"
       style="font-size:15px">
      <tspan
         style="font-size:11.20800018px;font-variant:normal;font-weight:normal;writing-mode:lr-tb;fill:#000000;fill-opacity:1;fill-rule:nonzero;stroke:none;font-family:MTEX;-inkscape-font-specification:MTEX"
         x="-566.13062"
         y="310.44235"
         id="tspan3389"></tspan>
    </text>
    <text
       id="text3395"
       x="-548.41187"
       y="305.84122"
       style="font-size:15px">
      <tspan
         style="font-size:11.20800018px;font-variant:normal;font-weight:normal;writing-mode:lr-tb;fill:#000000;fill-opacity:1;fill-rule:nonzero;stroke:none;font-family:MTEX;-inkscape-font-specification:MTEX"
         x="-548.41187"
         y="305.84122"
         id="tspan3397"></tspan>
    </text>
    <g
       id="g3727"
       transform="matrix(1.25,0,0,-1.25,357.89646,131.82762)">
      <path
         inkscape:connector-curvature="0"
         d="m 0,0 c 0.001,-2.197 -0.785,-4.335 -2.264,-6.325 -2.214,-2.979 -5.959,-5.554 -10.681,-7.365 -4.723,-1.814 -10.423,-2.875 -16.56,-2.875 -8.183,-10e-4 -15.592,1.886 -20.937,4.927 -2.673,1.52 -4.83,3.329 -6.305,5.313 -1.479,1.99 -2.265,4.128 -2.264,6.325 0,0.176 -0.086,0.319 -0.192,0.319 -0.107,0 -0.193,-0.143 -0.193,-0.319 0,-2.465 0.878,-4.768 2.405,-6.82 2.295,-3.081 6.081,-5.663 10.837,-7.492 4.757,-1.828 10.485,-2.892 16.649,-2.892 8.218,0.001 15.659,1.893 21.062,4.963 2.701,1.536 4.894,3.366 6.424,5.421 1.526,2.052 2.404,4.355 2.404,6.82 0,0.176 -0.086,0.319 -0.193,0.319 C 0.086,0.319 0,0.176 0,0"
         style="fill:#69cff3;fill-opacity:1;fill-rule:nonzero;stroke:none"
         id="path3729" />
    </g>
    <g
       id="g3731"
       transform="matrix(1.25,0,0,-1.25,357.89646,138.98762)">
      <path
         inkscape:connector-curvature="0"
         d="m 0,0 c 0.001,-2.197 -0.785,-4.336 -2.264,-6.325 -2.214,-2.98 -5.959,-5.554 -10.681,-7.365 -4.723,-1.814 -10.423,-2.876 -16.56,-2.875 -8.183,-10e-4 -15.592,1.887 -20.937,4.927 -2.673,1.519 -4.83,3.329 -6.305,5.313 -1.479,1.989 -2.265,4.128 -2.264,6.325 0,0.176 -0.086,0.32 -0.192,0.32 -0.107,0 -0.193,-0.144 -0.193,-0.32 0,-2.465 0.878,-4.769 2.405,-6.82 2.295,-3.081 6.081,-5.663 10.837,-7.493 4.757,-1.826 10.485,-2.89 16.649,-2.89 8.218,0 15.659,1.891 21.062,4.961 2.701,1.537 4.894,3.367 6.424,5.422 1.526,2.051 2.404,4.355 2.404,6.82 0,0.176 -0.086,0.32 -0.193,0.32 C 0.086,0.32 0,0.176 0,0"
         style="fill:#69cff3;fill-opacity:1;fill-rule:nonzero;stroke:none"
         id="path3733" />
    </g>
    <g
       id="g3735"
       transform="matrix(1.25,0,0,-1.25,357.89646,146.15012)">
      <path
         inkscape:connector-curvature="0"
         d="m 0,0 c 0.001,-2.197 -0.785,-4.335 -2.264,-6.324 -2.214,-2.98 -5.959,-5.554 -10.681,-7.366 -4.723,-1.815 -10.423,-2.876 -16.56,-2.876 -8.183,0 -15.592,1.888 -20.937,4.929 -2.673,1.519 -4.83,3.327 -6.305,5.313 -1.479,1.989 -2.265,4.127 -2.264,6.324 0,0.176 -0.086,0.319 -0.192,0.319 -0.107,0 -0.193,-0.143 -0.193,-0.319 0,-2.466 0.878,-4.769 2.405,-6.819 2.295,-3.081 6.081,-5.664 10.837,-7.493 4.757,-1.827 10.485,-2.892 16.649,-2.893 8.218,10e-4 15.659,1.893 21.062,4.964 2.701,1.537 4.894,3.366 6.424,5.422 1.526,2.05 2.404,4.353 2.404,6.819 0,0.176 -0.086,0.319 -0.193,0.319 C 0.086,0.319 0,0.176 0,0"
         style="fill:#69cff3;fill-opacity:1;fill-rule:nonzero;stroke:none"
         id="path3737" />
    </g>
    <g
       id="g3739"
       transform="matrix(1.25,0,0,-1.25,357.89646,153.07887)">
      <path
         inkscape:connector-curvature="0"
         d="m 0,0 c 0.001,-2.197 -0.785,-4.335 -2.264,-6.325 -2.214,-2.98 -5.959,-5.553 -10.681,-7.365 -4.723,-1.815 -10.423,-2.876 -16.56,-2.876 -8.183,-0.001 -15.592,1.888 -20.937,4.928 -2.673,1.52 -4.83,3.328 -6.305,5.313 -1.479,1.99 -2.265,4.128 -2.264,6.325 0,0.176 -0.086,0.319 -0.192,0.319 -0.107,0 -0.193,-0.143 -0.193,-0.319 0,-2.466 0.878,-4.769 2.405,-6.821 2.295,-3.079 6.081,-5.662 10.837,-7.492 4.757,-1.826 10.485,-2.891 16.649,-2.892 8.218,10e-4 15.659,1.893 21.062,4.964 2.701,1.536 4.894,3.365 6.424,5.42 1.526,2.052 2.404,4.355 2.404,6.821 0,0.176 -0.086,0.319 -0.193,0.319 C 0.086,0.319 0,0.176 0,0"
         style="fill:#100f0d;fill-opacity:1;fill-rule:nonzero;stroke:none"
         id="path3741" />
    </g>
    <path
       inkscape:connector-curvature="0"
       d="m 283.6452,153.07887 0.48375,0 0,-28.9125 -0.48375,0 0,28.9125 z"
       style="fill:#100f0d;fill-opacity:1;fill-rule:nonzero;stroke:none"
       id="path3743" />
    <g
       id="g3745"
       transform="matrix(1.25,0,0,-1.25,-226.05856,996.76137)">
      <g
         id="g3747"
         clip-path="url(#clipPath3749)">
        <path
           inkscape:connector-curvature="0"
           d="m 467.166,674.696 0.386,0 0,23 -0.386,0 0,-23 z"
           style="fill:#100f0d;fill-opacity:1;fill-rule:nonzero;stroke:none"
           id="path3753" />
        <g
           id="g3755"
           transform="translate(467.356,697.549)">
          <path
             inkscape:connector-curvature="0"
             d="m 0,0 -0.192,0 c 0.001,-2.198 -0.785,-4.336 -2.264,-6.324 -2.214,-2.98 -5.959,-5.554 -10.681,-7.367 -4.723,-1.814 -10.423,-2.875 -16.56,-2.875 -8.183,0 -15.592,1.888 -20.937,4.929 -2.673,1.519 -4.83,3.327 -6.305,5.313 -1.479,1.988 -2.265,4.126 -2.264,6.324 -10e-4,2.197 0.785,4.336 2.264,6.324 2.214,2.98 5.958,5.554 10.681,7.366 4.722,1.814 10.423,2.876 16.561,2.875 8.182,10e-4 15.59,-1.887 20.936,-4.928 2.673,-1.519 4.83,-3.328 6.305,-5.313 C -0.977,4.336 -0.191,2.197 -0.192,0 l 0.385,0 c 0,2.465 -0.878,4.768 -2.404,6.82 -2.294,3.081 -6.082,5.662 -10.838,7.492 -4.758,1.827 -10.484,2.892 -16.648,2.892 -8.22,-0.001 -15.661,-1.892 -21.063,-4.963 -2.702,-1.536 -4.894,-3.366 -6.423,-5.421 -1.527,-2.052 -2.405,-4.355 -2.405,-6.82 0,-2.466 0.878,-4.769 2.405,-6.821 2.295,-3.08 6.081,-5.662 10.837,-7.491 4.757,-1.827 10.485,-2.892 16.649,-2.892 8.218,0 15.659,1.892 21.062,4.963 2.701,1.537 4.894,3.366 6.424,5.42 1.526,2.052 2.404,4.355 2.404,6.821 L 0,0"
             style="fill:#100f0d;fill-opacity:1;fill-rule:nonzero;stroke:none"
             id="path3757" />
        </g>
      </g>
    </g>
    <g
       id="g3759"
       transform="matrix(1.25,0,0,-1.25,282.9777,262.26637)">
      <path
         inkscape:connector-curvature="0"
         d="M 0,0 2.002,7.248 3.769,0.004 1.961,1.75 0,0"
         style="fill:#ed1e24;fill-opacity:1;fill-rule:nonzero;stroke:none"
         id="path3761" />
    </g>
    <g
       id="g3763"
       transform="matrix(1.25,0,0,-1.25,-226.05856,996.76137)">
      <g
         id="g3765"
         clip-path="url(#clipPath3767)">
        <g
           id="g3771"
           transform="translate(407.229,587.596)">
          <path
             inkscape:connector-curvature="0"
             d="M 0,0 0.239,-0.067 1.987,6.261 3.325,0.778 1.967,2.088 -0.166,0.185 0,0 0.239,-0.067 0,0 0.165,-0.186 1.955,1.412 4.213,-0.769 2.017,8.233 -0.463,-0.748 0.165,-0.186 0,0"
             style="fill:#ed1e24;fill-opacity:1;fill-rule:nonzero;stroke:none"
             id="path3773" />
        </g>
        <g
           id="g3775"
           transform="translate(408.903,589.576)">
          <path
             inkscape:connector-curvature="0"
             d="m 0,0 0,-8.285 c 0,-0.137 0.112,-0.249 0.248,-0.249 0.137,0 0.248,0.112 0.248,0.249 L 0.496,0 C 0.496,0.137 0.385,0.248 0.248,0.248 0.112,0.248 0,0.137 0,0"
             style="fill:#ed1e24;fill-opacity:1;fill-rule:nonzero;stroke:none"
             id="path3777" />
        </g>
      </g>
    </g>
    <g
       id="g3779"
       transform="matrix(1.25,0,0,-1.25,351.55266,262.55512)">
      <path
         inkscape:connector-curvature="0"
         d="M 0,0 2.002,7.248 3.769,0.005 1.961,1.753 0,0"
         style="fill:#57c035;fill-opacity:1;fill-rule:nonzero;stroke:none"
         id="path3781" />
    </g>
    <g
       id="g3783"
       transform="matrix(1.25,0,0,-1.25,-226.05856,996.76137)">
      <g
         id="g3785"
         clip-path="url(#clipPath3787)">
        <g
           id="g3791"
           transform="translate(462.089,587.365)">
          <path
             inkscape:connector-curvature="0"
             d="M 0,0 0.24,-0.066 1.987,6.262 3.324,0.78 1.968,2.091 -0.165,0.185 0,0 0.24,-0.066 0,0 0.166,-0.184 1.955,1.413 4.215,-0.769 2.016,8.234 -0.464,-0.747 0.166,-0.184 0,0"
             style="fill:#57c035;fill-opacity:1;fill-rule:nonzero;stroke:none"
             id="path3793" />
        </g>
        <g
           id="g3795"
           transform="translate(463.763,589.346)">
          <path
             inkscape:connector-curvature="0"
             d="m 0,0 0,-8.055 c 0,-0.137 0.111,-0.249 0.248,-0.249 0.136,0 0.248,0.112 0.248,0.249 L 0.496,0 C 0.496,0.137 0.384,0.248 0.248,0.248 0.111,0.248 0,0.137 0,0"
             style="fill:#57c035;fill-opacity:1;fill-rule:nonzero;stroke:none"
             id="path3797" />
        </g>
      </g>
    </g>
    <g
       id="g3799"
       transform="matrix(1.25,0,0,-1.25,359.24896,242.96887)">
      <path
         inkscape:connector-curvature="0"
         d="m 0,0 c -15.716,0 -29.942,6.713 -40.243,17.568 -10.3,10.855 -16.672,25.853 -16.672,42.42 l -0.243,0 c 0,-16.63 6.395,-31.687 16.739,-42.587 C -30.077,6.501 -15.786,-0.243 0,-0.243 L 0,0"
         style="fill:#100f0d;fill-opacity:1;fill-rule:nonzero;stroke:none"
         id="path3801" />
    </g>
    <g
       id="g3803"
       transform="matrix(1.25,0,0,-1.25,359.27766,247.20887)">
      <path
         inkscape:connector-curvature="0"
         d="m 0,0 c -16.628,0 -31.679,7.102 -42.578,18.587 -10.896,11.484 -17.637,27.351 -17.637,44.878 l -0.244,0 c 0,-17.59 6.765,-33.516 17.706,-45.045 C -31.815,6.891 -16.699,-0.242 0,-0.242 L 0,0"
         style="fill:#100f0d;fill-opacity:1;fill-rule:nonzero;stroke:none"
         id="path3805" />
    </g>
    <g
       id="g3807"
       transform="matrix(1.25,0,0,-1.25,357.07646,247.12387)">
      <path
         inkscape:connector-curvature="0"
         d="m 0,0 c -11.78,0.33 -23.306,4.407 -33.05,11.695 -12.886,9.636 -21.715,24.322 -24.43,40.63 -0.562,3.377 -0.783,5.676 -0.924,9.648 l -0.044,1.243 2.974,0 0.054,-1.588 c 0.305,-9.223 2.273,-17.462 6.072,-25.412 5.028,-10.528 12.824,-19.204 22.639,-25.19 7.788,-4.75 17.378,-7.664 26.02,-7.904 C 0.092,3.1 0.945,3.064 1.207,3.04 l 0.48,-0.041 0,-3.052 -0.48,0.017 C 0.945,-0.029 0.402,-0.012 0,0"
         style="fill:#69cff3;fill-opacity:1;fill-rule:nonzero;stroke:none"
         id="path3809" />
    </g>
    <g
       id="g3811"
       transform="matrix(1.25,0,0,-1.25,265.12645,131.82762)">
      <path
         inkscape:connector-curvature="0"
         d="m 0,0 c 0.001,-2.197 -0.784,-4.335 -2.263,-6.325 -2.213,-2.979 -5.958,-5.554 -10.68,-7.365 -4.723,-1.814 -10.424,-2.875 -16.562,-2.875 -8.182,-10e-4 -15.591,1.886 -20.937,4.927 -2.672,1.52 -4.829,3.329 -6.305,5.313 -1.478,1.99 -2.264,4.128 -2.263,6.325 0,0.176 -0.086,0.319 -0.192,0.319 -0.106,0 -0.193,-0.143 -0.193,-0.319 0.001,-2.465 0.878,-4.768 2.404,-6.82 2.295,-3.081 6.081,-5.663 10.838,-7.492 4.758,-1.828 10.484,-2.892 16.648,-2.892 8.22,0.001 15.661,1.893 21.063,4.963 2.701,1.536 4.894,3.366 6.424,5.421 1.526,2.052 2.403,4.355 2.404,6.82 0,0.176 -0.087,0.319 -0.192,0.319 C 0.087,0.319 0,0.176 0,0"
         style="fill:#69cff3;fill-opacity:1;fill-rule:nonzero;stroke:none"
         id="path3813" />
    </g>
    <g
       id="g3815"
       transform="matrix(1.25,0,0,-1.25,265.12645,138.98762)">
      <path
         inkscape:connector-curvature="0"
         d="m 0,0 c 0.001,-2.197 -0.784,-4.336 -2.263,-6.325 -2.213,-2.98 -5.958,-5.554 -10.68,-7.365 -4.723,-1.814 -10.424,-2.876 -16.562,-2.875 -8.182,-10e-4 -15.591,1.887 -20.937,4.927 -2.672,1.519 -4.829,3.329 -6.305,5.313 -1.478,1.989 -2.264,4.128 -2.263,6.325 0,0.176 -0.086,0.32 -0.192,0.32 -0.106,0 -0.193,-0.144 -0.193,-0.32 0.001,-2.465 0.878,-4.769 2.404,-6.82 2.295,-3.081 6.081,-5.663 10.838,-7.493 4.758,-1.826 10.484,-2.89 16.648,-2.89 8.22,0 15.661,1.891 21.063,4.961 2.701,1.537 4.894,3.367 6.424,5.422 1.526,2.051 2.403,4.355 2.404,6.82 0,0.176 -0.087,0.32 -0.192,0.32 C 0.087,0.32 0,0.176 0,0"
         style="fill:#69cff3;fill-opacity:1;fill-rule:nonzero;stroke:none"
         id="path3817" />
    </g>
    <g
       id="g3819"
       transform="matrix(1.25,0,0,-1.25,265.12645,146.15012)">
      <path
         inkscape:connector-curvature="0"
         d="m 0,0 c 0.001,-2.197 -0.784,-4.335 -2.263,-6.324 -2.213,-2.98 -5.958,-5.554 -10.68,-7.366 -4.723,-1.815 -10.424,-2.876 -16.562,-2.876 -8.182,0 -15.591,1.888 -20.937,4.929 -2.672,1.519 -4.829,3.327 -6.305,5.313 -1.478,1.989 -2.264,4.127 -2.263,6.324 0,0.176 -0.086,0.319 -0.192,0.319 -0.106,0 -0.193,-0.143 -0.193,-0.319 0.001,-2.466 0.878,-4.769 2.404,-6.819 2.295,-3.081 6.081,-5.664 10.838,-7.493 4.758,-1.827 10.484,-2.892 16.648,-2.893 8.22,10e-4 15.661,1.893 21.063,4.964 2.701,1.537 4.894,3.366 6.424,5.422 1.526,2.05 2.403,4.353 2.404,6.819 0,0.176 -0.087,0.319 -0.192,0.319 C 0.087,0.319 0,0.176 0,0"
         style="fill:#69cff3;fill-opacity:1;fill-rule:nonzero;stroke:none"
         id="path3821" />
    </g>
    <g
       id="g3823"
       transform="matrix(1.25,0,0,-1.25,192.29645,157.48137)">
      <path
         inkscape:connector-curvature="0"
         d="m 0,0 0,22.12 c 0,0.177 -0.087,0.319 -0.194,0.319 -0.106,0 -0.192,-0.142 -0.192,-0.319 l 0,-22.12 c 0,-0.177 0.086,-0.32 0.192,-0.32 C -0.087,-0.32 0,-0.177 0,0"
         style="fill:#f68944;fill-opacity:1;fill-rule:nonzero;stroke:none"
         id="path3825" />
    </g>
    <g
       id="g3827"
       transform="matrix(1.25,0,0,-1.25,200.8602,166.89512)">
      <path
         inkscape:connector-curvature="0"
         d="m 0,0 0,22.423 c 0,0.176 -0.086,0.32 -0.192,0.32 -0.108,0 -0.194,-0.144 -0.194,-0.32 L -0.386,0 c 0,-0.177 0.086,-0.319 0.194,-0.319 C -0.086,-0.319 0,-0.177 0,0"
         style="fill:#f68944;fill-opacity:1;fill-rule:nonzero;stroke:none"
         id="path3829" />
    </g>
    <g
       id="g3831"
       transform="matrix(1.25,0,0,-1.25,205.42145,169.29762)">
      <path
         inkscape:connector-curvature="0"
         d="m 0,0 0,22.387 c 0,0.177 -0.087,0.319 -0.194,0.319 -0.106,0 -0.192,-0.142 -0.192,-0.319 L -0.386,0 c 0,-0.177 0.086,-0.319 0.192,-0.319 C -0.087,-0.319 0,-0.177 0,0"
         style="fill:#f68944;fill-opacity:1;fill-rule:nonzero;stroke:none"
         id="path3833" />
    </g>
    <g
       id="g3835"
       transform="matrix(1.25,0,0,-1.25,210.75895,171.35512)">
      <path
         inkscape:connector-curvature="0"
         d="m 0,0 0,22.343 c 0,0.177 -0.086,0.32 -0.192,0.32 -0.107,0 -0.194,-0.143 -0.194,-0.32 L -0.386,0 c 0,-0.176 0.087,-0.32 0.194,-0.32 C -0.086,-0.32 0,-0.176 0,0"
         style="fill:#f68944;fill-opacity:1;fill-rule:nonzero;stroke:none"
         id="path3837" />
    </g>
    <g
       id="g3839"
       transform="matrix(1.25,0,0,-1.25,216.43145,172.80387)">
      <path
         inkscape:connector-curvature="0"
         d="m 0,0 0,22.166 c 0,0.178 -0.086,0.32 -0.192,0.32 -0.108,0 -0.195,-0.142 -0.195,-0.32 L -0.387,0 c 0,-0.176 0.087,-0.319 0.195,-0.319 C -0.086,-0.319 0,-0.176 0,0"
         style="fill:#f68944;fill-opacity:1;fill-rule:nonzero;stroke:none"
         id="path3841" />
    </g>
    <g
       id="g3843"
       transform="matrix(1.25,0,0,-1.25,222.3702,173.73762)">
      <path
         inkscape:connector-curvature="0"
         d="m 0,0 0,22.247 c 0,0.177 -0.086,0.32 -0.193,0.32 -0.107,0 -0.194,-0.143 -0.194,-0.32 L -0.387,0 c 0,-0.176 0.087,-0.319 0.194,-0.319 C -0.086,-0.319 0,-0.176 0,0"
         style="fill:#f68944;fill-opacity:1;fill-rule:nonzero;stroke:none"
         id="path3845" />
    </g>
    <g
       id="g3847"
       transform="matrix(1.25,0,0,-1.25,228.4502,174.02512)">
      <path
         inkscape:connector-curvature="0"
         d="m 0,0 0,22.298 c 0,0.176 -0.086,0.32 -0.193,0.32 -0.105,0 -0.192,-0.144 -0.192,-0.32 L -0.385,0 c 0,-0.176 0.087,-0.319 0.192,-0.319 C -0.086,-0.319 0,-0.176 0,0"
         style="fill:#f68944;fill-opacity:1;fill-rule:nonzero;stroke:none"
         id="path3849" />
    </g>
    <g
       id="g3851"
       transform="matrix(1.25,0,0,-1.25,194.6677,161.77137)">
      <path
         inkscape:connector-curvature="0"
         d="m 0,0 0,22.379 c 0,0.177 -0.086,0.32 -0.193,0.32 -0.107,0 -0.194,-0.143 -0.194,-0.32 L -0.387,0 c 0,-0.177 0.087,-0.32 0.194,-0.32 C -0.086,-0.32 0,-0.177 0,0"
         style="fill:#f68944;fill-opacity:1;fill-rule:nonzero;stroke:none"
         id="path3853" />
    </g>
    <g
       id="g3855"
       transform="matrix(1.25,0,0,-1.25,264.64645,157.57262)">
      <path
         inkscape:connector-curvature="0"
         d="m 0,0 0,22.203 c 0,0.177 -0.087,0.319 -0.194,0.319 -0.106,0 -0.192,-0.142 -0.192,-0.319 L -0.386,0 c 0,-0.176 0.086,-0.319 0.192,-0.319 C -0.087,-0.319 0,-0.176 0,0"
         style="fill:#f68944;fill-opacity:1;fill-rule:nonzero;stroke:none"
         id="path3857" />
    </g>
    <g
       id="g3859"
       transform="matrix(1.25,0,0,-1.25,259.53145,164.63137)">
      <path
         inkscape:connector-curvature="0"
         d="m 0,0 0,22.49 c 0,0.177 -0.086,0.32 -0.193,0.32 -0.106,0 -0.193,-0.143 -0.193,-0.32 l 0,-22.49 c 0,-0.178 0.087,-0.32 0.193,-0.32 C -0.086,-0.32 0,-0.178 0,0"
         style="fill:#f68944;fill-opacity:1;fill-rule:nonzero;stroke:none"
         id="path3861" />
    </g>
    <g
       id="g3863"
       transform="matrix(1.25,0,0,-1.25,256.0827,167.18887)">
      <path
         inkscape:connector-curvature="0"
         d="m 0,0 0,22.668 c 0,0.176 -0.085,0.319 -0.193,0.319 -0.106,0 -0.192,-0.143 -0.192,-0.319 L -0.385,0 c 0,-0.177 0.086,-0.32 0.192,-0.32 C -0.085,-0.32 0,-0.177 0,0"
         style="fill:#f68944;fill-opacity:1;fill-rule:nonzero;stroke:none"
         id="path3865" />
    </g>
    <g
       id="g3867"
       transform="matrix(1.25,0,0,-1.25,251.5227,169.48637)">
      <path
         inkscape:connector-curvature="0"
         d="m 0,0 0,22.547 c 0,0.177 -0.087,0.319 -0.192,0.319 -0.106,0 -0.193,-0.142 -0.193,-0.319 L -0.385,0 c 0,-0.177 0.087,-0.319 0.193,-0.319 C -0.087,-0.319 0,-0.177 0,0"
         style="fill:#f68944;fill-opacity:1;fill-rule:nonzero;stroke:none"
         id="path3869" />
    </g>
    <g
       id="g3871"
       transform="matrix(1.25,0,0,-1.25,246.18145,171.54637)">
      <path
         inkscape:connector-curvature="0"
         d="m 0,0 0,22.507 c 0,0.175 -0.086,0.319 -0.192,0.319 -0.107,0 -0.194,-0.144 -0.194,-0.319 L -0.386,0 c 0,-0.176 0.087,-0.319 0.194,-0.319 C -0.086,-0.319 0,-0.176 0,0"
         style="fill:#f68944;fill-opacity:1;fill-rule:nonzero;stroke:none"
         id="path3873" />
    </g>
    <g
       id="g3875"
       transform="matrix(1.25,0,0,-1.25,240.5102,172.99137)">
      <path
         inkscape:connector-curvature="0"
         d="m 0,0 0,22.327 c 0,0.175 -0.087,0.319 -0.192,0.319 -0.108,0 -0.195,-0.144 -0.195,-0.319 L -0.387,0 c 0,-0.176 0.087,-0.319 0.195,-0.319 C -0.087,-0.319 0,-0.176 0,0"
         style="fill:#f68944;fill-opacity:1;fill-rule:nonzero;stroke:none"
         id="path3877" />
    </g>
    <g
       id="g3879"
       transform="matrix(1.25,0,0,-1.25,234.57145,173.72387)">
      <path
         inkscape:connector-curvature="0"
         d="m 0,0 0,22.246 c 0,0.176 -0.087,0.319 -0.193,0.319 -0.107,0 -0.193,-0.143 -0.193,-0.319 L -0.386,0 c 0,-0.177 0.086,-0.32 0.193,-0.32 C -0.087,-0.32 0,-0.177 0,0"
         style="fill:#f68944;fill-opacity:1;fill-rule:nonzero;stroke:none"
         id="path3881" />
    </g>
    <g
       id="g3883"
       transform="matrix(1.25,0,0,-1.25,262.27395,161.76012)">
      <path
         inkscape:connector-curvature="0"
         d="m 0,0 0,22.381 c 0,0.176 -0.087,0.318 -0.193,0.318 -0.107,0 -0.193,-0.142 -0.193,-0.318 L -0.386,0 c 0,-0.176 0.086,-0.319 0.193,-0.319 C -0.087,-0.319 0,-0.176 0,0"
         style="fill:#f68944;fill-opacity:1;fill-rule:nonzero;stroke:none"
         id="path3885" />
    </g>
    <g
       id="g3887"
       transform="matrix(1.25,0,0,-1.25,197.40895,164.33887)">
      <path
         inkscape:connector-curvature="0"
         d="m 0,0 0,22.247 c 0,0.176 -0.086,0.319 -0.192,0.319 -0.106,0 -0.193,-0.143 -0.193,-0.319 L -0.385,0 c 0,-0.176 0.087,-0.319 0.193,-0.319 C -0.086,-0.319 0,-0.176 0,0"
         style="fill:#f68944;fill-opacity:1;fill-rule:nonzero;stroke:none"
         id="path3889" />
    </g>
    <g
       id="g3891"
       transform="matrix(1.25,0,0,-1.25,265.12645,153.07887)">
      <path
         inkscape:connector-curvature="0"
         d="m 0,0 c 0.001,-2.197 -0.784,-4.335 -2.263,-6.325 -2.213,-2.98 -5.958,-5.553 -10.68,-7.365 -4.723,-1.815 -10.424,-2.876 -16.562,-2.876 -8.182,-0.001 -15.591,1.888 -20.937,4.928 -2.672,1.52 -4.829,3.328 -6.305,5.313 -1.478,1.99 -2.264,4.128 -2.263,6.325 0,0.176 -0.086,0.319 -0.192,0.319 -0.106,0 -0.193,-0.143 -0.193,-0.319 0.001,-2.466 0.878,-4.769 2.404,-6.821 2.295,-3.079 6.081,-5.662 10.838,-7.492 4.758,-1.826 10.484,-2.891 16.648,-2.892 8.22,10e-4 15.661,1.893 21.063,4.964 2.701,1.536 4.894,3.365 6.424,5.42 1.526,2.052 2.403,4.355 2.404,6.821 0,0.176 -0.087,0.319 -0.192,0.319 C 0.087,0.319 0,0.176 0,0"
         style="fill:#100f0d;fill-opacity:1;fill-rule:nonzero;stroke:none"
         id="path3893" />
    </g>
    <path
       inkscape:connector-curvature="0"
       d="m 190.8802,153.07887 0.4825,0 0,-28.9125 -0.4825,0 0,28.9125 z"
       style="fill:#100f0d;fill-opacity:1;fill-rule:nonzero;stroke:none"
       id="path3895" />
    <g
       id="g3897"
       transform="matrix(1.25,0,0,-1.25,-226.05856,996.76137)">
      <g
         id="g3899"
         clip-path="url(#clipPath3901)">
        <path
           inkscape:connector-curvature="0"
           d="m 392.951,674.696 0.386,0 0,23 -0.386,0 0,-23 z"
           style="fill:#100f0d;fill-opacity:1;fill-rule:nonzero;stroke:none"
           id="path3905" />
        <g
           id="g3907"
           transform="translate(393.142,697.549)">
          <path
             inkscape:connector-curvature="0"
             d="m 0,0 -0.194,0 c 0.001,-2.198 -0.784,-4.336 -2.263,-6.324 -2.213,-2.98 -5.958,-5.554 -10.68,-7.367 -4.723,-1.814 -10.424,-2.875 -16.562,-2.875 -8.182,0 -15.591,1.888 -20.937,4.929 -2.672,1.519 -4.829,3.327 -6.305,5.313 -1.478,1.988 -2.264,4.126 -2.263,6.324 -10e-4,2.197 0.785,4.336 2.263,6.324 2.214,2.98 5.959,5.554 10.682,7.366 4.722,1.814 10.424,2.876 16.56,2.875 8.184,10e-4 15.592,-1.887 20.938,-4.928 2.673,-1.519 4.829,-3.328 6.304,-5.313 C -0.978,4.336 -0.193,2.197 -0.194,0 l 0.386,0 c -0.001,2.465 -0.878,4.768 -2.404,6.82 -2.294,3.081 -6.081,5.662 -10.838,7.492 -4.757,1.827 -10.484,2.892 -16.649,2.892 -8.219,-0.001 -15.66,-1.892 -21.062,-4.963 -2.701,-1.536 -4.893,-3.366 -6.424,-5.421 -1.526,-2.052 -2.403,-4.355 -2.404,-6.82 10e-4,-2.466 0.878,-4.769 2.404,-6.821 2.295,-3.08 6.081,-5.662 10.838,-7.491 4.758,-1.827 10.484,-2.892 16.648,-2.892 8.22,0 15.661,1.892 21.063,4.963 2.701,1.537 4.894,3.366 6.424,5.42 1.526,2.052 2.403,4.355 2.404,6.821 L 0,0"
             style="fill:#100f0d;fill-opacity:1;fill-rule:nonzero;stroke:none"
             id="path3909" />
        </g>
      </g>
    </g>
    <g
       id="g3911"
       transform="matrix(1.25,0,0,-1.25,208.8477,217.76887)">
      <path
         inkscape:connector-curvature="0"
         d="m 0,0 -10.837,-10.837 c -0.114,-0.114 -0.114,-0.3 0,-0.414 0.114,-0.114 0.299,-0.114 0.413,0 L 0.414,-0.414 C 0.527,-0.3 0.527,-0.115 0.414,0 0.3,0.114 0.114,0.114 0,0"
         style="fill:#100f0d;fill-opacity:1;fill-rule:nonzero;stroke:none"
         id="path3913" />
    </g>
    <g
       id="g3915"
       transform="matrix(1.25,0,0,-1.25,197.6227,229.51012)">
      <path
         inkscape:connector-curvature="0"
         d="M 0,0 0,1.653 -2.065,-2.066 1.653,0 0,0"
         style="fill:#100f0d;fill-opacity:1;fill-rule:evenodd;stroke:none"
         id="path3917" />
    </g>
    <g
       id="g3919"
       transform="matrix(1.25,0,0,-1.25,197.6227,229.51012)">
      <path
         inkscape:connector-curvature="0"
         d="m 0,0 0.146,0 0,2.216 L -2.441,-2.441 2.217,0.146 0,0.146 0,0 0.146,0 0,0 l 0,-0.146 1.089,0 -2.778,-1.544 1.543,2.779 0,-1.235 0.146,0 L 0,0"
         style="fill:#100f0d;fill-opacity:1;fill-rule:nonzero;stroke:none"
         id="path3921" />
    </g>
    <g
       id="g3923"
       transform="matrix(1.25,0,0,-1.25,208.81895,218.07637)">
      <path
         inkscape:connector-curvature="0"
         d="m 0,0 0,-9.511 c 0,-0.208 0.103,-0.376 0.228,-0.376 0.125,0 0.226,0.168 0.226,0.376 L 0.454,0 C 0.454,0.207 0.353,0.376 0.228,0.376 0.103,0.376 0,0.207 0,0"
         style="fill:#100f0d;fill-opacity:1;fill-rule:nonzero;stroke:none"
         id="path3925" />
    </g>
    <g
       id="g3927"
       transform="matrix(1.25,0,0,-1.25,208.9552,228.06887)">
      <path
         inkscape:connector-curvature="0"
         d="M 0,0 0.003,0.195 C -2.062,0.228 -4.03,1.08 -5.466,2.562 L -5.607,2.427 -5.471,2.286 -0.081,7.504 -0.195,0.003 0,0 0.003,0.195 0,0 0.194,-0.003 0.315,7.967 0.198,8.148 -0.015,8.11 -5.743,2.566 -5.801,2.429 -5.746,2.291 c 1.509,-1.557 3.575,-2.451 5.742,-2.485 L 0.134,-0.14 0.194,-0.003 0,0"
         style="fill:#100f0d;fill-opacity:1;fill-rule:nonzero;stroke:none"
         id="path3929" />
    </g>
    <g
       id="g3931"
       transform="matrix(1.25,0,0,-1.25,186.4902,168.65387)">
      <path
         inkscape:connector-curvature="0"
         d="M 0,0 C -0.009,0.328 -0.016,0.657 -0.02,0.987 L -0.517,0.981 c 0.005,-0.332 0.012,-0.664 0.021,-0.995 L 0,0 z M 0.148,-2.963 C 0.124,-2.635 0.103,-2.306 0.084,-1.977 L -0.412,-2.005 C -0.393,-2.337 -0.371,-2.669 -0.347,-3 l 0.495,0.037 z m 0.284,-2.953 c -0.039,0.327 -0.076,0.654 -0.11,0.983 l -0.493,-0.052 c 0.033,-0.33 0.071,-0.66 0.11,-0.99 l 0.493,0.059 z m 0.419,-2.936 c -0.054,0.325 -0.106,0.65 -0.156,0.976 L 0.206,-7.95 C 0.255,-8.278 0.307,-8.607 0.36,-8.933 l 0.491,0.081 z m 0.554,-2.914 c -0.069,0.322 -0.135,0.644 -0.199,0.968 l -0.487,-0.096 c 0.064,-0.326 0.132,-0.652 0.201,-0.976 l 0.485,0.104 z m 0.691,-2.885 c -0.084,0.319 -0.166,0.638 -0.245,0.958 l -0.483,-0.119 c 0.08,-0.323 0.162,-0.644 0.247,-0.966 l 0.481,0.127 z M 2.92,-17.5 c -0.099,0.314 -0.195,0.629 -0.29,0.946 l -0.476,-0.142 c 0.095,-0.319 0.193,-0.637 0.292,-0.954 l 0.474,0.15 z m 0.957,-2.807 c -0.113,0.309 -0.225,0.619 -0.334,0.931 L 3.075,-19.54 c 0.11,-0.314 0.222,-0.627 0.335,-0.938 l 0.467,0.171 z m 1.089,-2.76 c -0.128,0.305 -0.254,0.609 -0.378,0.915 l -0.46,-0.186 c 0.124,-0.309 0.251,-0.615 0.381,-0.921 l 0.457,0.192 z m 1.218,-2.704 c -0.142,0.298 -0.283,0.595 -0.42,0.896 l -0.451,-0.207 c 0.138,-0.303 0.28,-0.604 0.423,-0.903 l 0.448,0.214 z m 1.345,-2.642 c -0.156,0.289 -0.31,0.581 -0.462,0.873 l -0.44,-0.228 c 0.153,-0.296 0.308,-0.589 0.466,-0.881 l 0.436,0.236 z m 1.466,-2.567 c -0.17,0.28 -0.337,0.563 -0.502,0.846 l -0.43,-0.249 c 0.166,-0.286 0.336,-0.571 0.506,-0.854 l 0.426,0.257 z m 1.586,-2.495 c -0.183,0.272 -0.363,0.546 -0.542,0.822 l -0.417,-0.27 c 0.181,-0.278 0.362,-0.554 0.546,-0.829 l 0.413,0.277 z m 1.705,-2.417 c -0.196,0.264 -0.39,0.529 -0.581,0.796 l -0.403,-0.29 c 0.193,-0.269 0.388,-0.536 0.586,-0.802 l 0.398,0.296 z m 1.821,-2.331 c -0.208,0.253 -0.416,0.508 -0.62,0.767 l -0.388,-0.309 c 0.206,-0.26 0.414,-0.518 0.624,-0.773 l 0.384,0.315 z m 1.932,-2.242 c -0.221,0.244 -0.439,0.489 -0.656,0.737 l -0.373,-0.328 c 0.218,-0.249 0.438,-0.497 0.661,-0.742 l 0.368,0.333 z m 2.04,-2.144 c -0.232,0.233 -0.462,0.467 -0.691,0.704 l -0.357,-0.346 c 0.231,-0.238 0.463,-0.474 0.697,-0.709 l 0.351,0.351 z m 2.145,-2.041 c -0.244,0.221 -0.486,0.443 -0.725,0.669 l -0.34,-0.363 c 0.241,-0.227 0.486,-0.451 0.732,-0.674 l 0.333,0.368 z m 2.244,-1.932 c -0.254,0.208 -0.507,0.419 -0.758,0.632 l -0.32,-0.379 c 0.253,-0.215 0.507,-0.427 0.764,-0.637 l 0.314,0.384 z m 2.34,-1.817 c -0.265,0.195 -0.529,0.392 -0.79,0.593 l -0.301,-0.395 c 0.263,-0.202 0.529,-0.4 0.796,-0.598 l 0.295,0.4 z m 2.429,-1.697 c -0.274,0.182 -0.548,0.366 -0.819,0.552 l -0.28,-0.409 c 0.273,-0.188 0.549,-0.373 0.826,-0.557 l 0.273,0.414 z m 2.514,-1.57 c -0.283,0.168 -0.565,0.337 -0.847,0.509 l -0.259,-0.423 c 0.283,-0.174 0.569,-0.345 0.854,-0.513 l 0.252,0.427 z m 2.594,-1.438 c -0.292,0.152 -0.583,0.307 -0.872,0.465 l -0.238,-0.437 c 0.292,-0.159 0.586,-0.315 0.881,-0.468 l 0.229,0.44 z m 2.667,-1.302 c -0.301,0.137 -0.599,0.277 -0.897,0.419 l -0.214,-0.448 c 0.3,-0.143 0.602,-0.284 0.905,-0.422 l 0.206,0.451 z m 2.733,-1.159 c -0.307,0.121 -0.613,0.245 -0.919,0.371 l -0.189,-0.459 c 0.307,-0.127 0.616,-0.252 0.926,-0.373 l 0.182,0.461 z m 2.792,-1.012 c -0.313,0.105 -0.626,0.211 -0.937,0.321 l -0.165,-0.468 c 0.314,-0.111 0.628,-0.22 0.945,-0.325 l 0.157,0.472 z m 2.844,-0.863 c -0.318,0.088 -0.637,0.178 -0.954,0.271 l -0.14,-0.476 c 0.319,-0.094 0.641,-0.185 0.963,-0.273 l 0.131,0.478 z m 2.885,-0.708 c -0.323,0.07 -0.644,0.143 -0.964,0.219 l -0.115,-0.484 c 0.325,-0.076 0.649,-0.149 0.973,-0.22 l 0.106,0.485 z m 2.913,-0.551 c -0.326,0.054 -0.652,0.108 -0.975,0.167 l -0.088,-0.488 c 0.326,-0.059 0.654,-0.116 0.983,-0.168 l 0.08,0.489 z m 2.937,-0.393 c -0.328,0.036 -0.655,0.073 -0.982,0.114 l -0.061,-0.493 c 0.329,-0.041 0.659,-0.079 0.99,-0.114 l 0.053,0.493 z m 2.955,-0.235 c -0.33,0.017 -0.659,0.037 -0.986,0.061 l -0.036,-0.496 c 0.331,-0.022 0.663,-0.043 0.996,-0.061 l 0.026,0.496 z m 2.962,-0.079 c -0.329,0 -0.659,0.003 -0.987,0.01 l -0.009,-0.497 c 0.331,-0.006 0.664,-0.009 0.996,-0.009 l 0,0.496"
         style="fill:#c8c7c5;fill-opacity:1;fill-rule:nonzero;stroke:none"
         id="path3933" />
    </g>
    <g
       id="g3935"
       transform="matrix(1.25,0,0,-1.25,188.8452,169.10762)">
      <path
         inkscape:connector-curvature="0"
         d="m 0,0 c 0,-1.129 -0.913,-2.045 -2.046,-2.045 -1.129,0 -2.043,0.916 -2.043,2.045 0,1.13 0.914,2.046 2.043,2.046 C -0.913,2.046 0,1.13 0,0"
         style="fill:#f68944;fill-opacity:1;fill-rule:nonzero;stroke:none"
         id="path3937" />
    </g>
    <g
       id="g3939"
       transform="matrix(1.25,0,0,-1.25,188.8452,169.10762)">
      <path
         inkscape:connector-curvature="0"
         d="m 0,0 -0.124,0 c 0,-1.061 -0.858,-1.921 -1.922,-1.921 -1.061,0.001 -1.917,0.86 -1.919,1.921 0.002,1.062 0.858,1.921 1.919,1.922 C -0.982,1.921 -0.124,1.062 -0.124,0 l 0.248,0 c -0.002,1.198 -0.968,2.171 -2.17,2.171 -1.197,0 -2.167,-0.973 -2.167,-2.171 0,-1.198 0.97,-2.17 2.167,-2.17 1.201,0.003 2.168,0.972 2.17,2.17 L 0,0"
         style="fill:#100f0d;fill-opacity:1;fill-rule:nonzero;stroke:none"
         id="path3941" />
    </g>
    <g
       id="g3943"
       transform="matrix(1.25,0,0,-1.25,192.06895,189.44387)">
      <path
         inkscape:connector-curvature="0"
         d="m 0,0 c 0,-1.131 -0.915,-2.046 -2.045,-2.046 -1.13,0 -2.046,0.915 -2.046,2.046 0,1.13 0.916,2.043 2.046,2.043 C -0.915,2.043 0,1.13 0,0"
         style="fill:#f68944;fill-opacity:1;fill-rule:nonzero;stroke:none"
         id="path3945" />
    </g>
    <g
       id="g3947"
       transform="matrix(1.25,0,0,-1.25,192.06895,189.44387)">
      <path
         inkscape:connector-curvature="0"
         d="m 0,0 -0.124,0 c -0.002,-1.063 -0.86,-1.922 -1.921,-1.922 -1.062,0 -1.92,0.859 -1.922,1.922 0.002,1.06 0.86,1.917 1.922,1.919 C -0.984,1.917 -0.126,1.06 -0.124,0 l 0.248,0 c 0,1.198 -0.971,2.167 -2.169,2.167 -1.198,0 -2.17,-0.969 -2.17,-2.167 0,-1.2 0.972,-2.168 2.17,-2.17 1.198,0 2.169,0.97 2.169,2.17 L 0,0"
         style="fill:#100f0d;fill-opacity:1;fill-rule:nonzero;stroke:none"
         id="path3949" />
    </g>
    <g
       id="g3951"
       transform="matrix(1.25,0,0,-1.25,189.5877,179.39637)">
      <path
         inkscape:connector-curvature="0"
         d="m 0,0 c 0,-1.13 -0.916,-2.046 -2.046,-2.046 -1.129,0 -2.046,0.916 -2.046,2.046 0,1.129 0.917,2.046 2.046,2.046 C -0.916,2.046 0,1.129 0,0"
         style="fill:#f68944;fill-opacity:1;fill-rule:nonzero;stroke:none"
         id="path3953" />
    </g>
    <g
       id="g3955"
       transform="matrix(1.25,0,0,-1.25,189.5877,179.39637)">
      <path
         inkscape:connector-curvature="0"
         d="M 0,0 -0.124,0 C -0.125,-1.061 -0.985,-1.92 -2.046,-1.922 -3.107,-1.92 -3.966,-1.061 -3.968,0 -3.966,1.061 -3.107,1.919 -2.046,1.922 -0.985,1.919 -0.125,1.061 -0.124,0 l 0.249,0 c 0,1.197 -0.972,2.169 -2.171,2.17 -1.199,-10e-4 -2.17,-0.973 -2.17,-2.17 0.001,-1.198 0.971,-2.17 2.17,-2.17 1.199,0 2.171,0.972 2.171,2.17 L 0,0"
         style="fill:#100f0d;fill-opacity:1;fill-rule:nonzero;stroke:none"
         id="path3957" />
    </g>
    <g
       id="g3959"
       transform="matrix(1.25,0,0,-1.25,259.2452,242.97887)">
      <path
         inkscape:connector-curvature="0"
         d="m 0,0 c 0,-1.129 -0.917,-2.046 -2.046,-2.046 -1.13,0 -2.046,0.917 -2.046,2.046 0,1.13 0.916,2.046 2.046,2.046 C -0.917,2.046 0,1.13 0,0"
         style="fill:#f68944;fill-opacity:1;fill-rule:nonzero;stroke:none"
         id="path3961" />
    </g>
    <g
       id="g3963"
       transform="matrix(1.25,0,0,-1.25,259.2452,242.97887)">
      <path
         inkscape:connector-curvature="0"
         d="M 0,0 -0.124,0 C -0.126,-1.061 -0.986,-1.92 -2.046,-1.921 -3.106,-1.92 -3.967,-1.061 -3.968,0 -3.967,1.061 -3.106,1.92 -2.046,1.922 -0.986,1.92 -0.126,1.061 -0.124,0 l 0.248,0 c 0,1.199 -0.972,2.17 -2.17,2.17 -1.198,0 -2.171,-0.971 -2.171,-2.17 0,-1.198 0.973,-2.17 2.171,-2.17 1.198,0 2.17,0.972 2.17,2.17 L 0,0"
         style="fill:#100f0d;fill-opacity:1;fill-rule:nonzero;stroke:none"
         id="path3965" />
    </g>
    <g
       id="g3967"
       transform="matrix(1.25,0,0,-1.25,238.99395,239.25137)">
      <path
         inkscape:connector-curvature="0"
         d="m 0,0 c 0,-1.13 -0.914,-2.046 -2.043,-2.046 -1.133,0 -2.047,0.916 -2.047,2.046 0,1.129 0.914,2.045 2.047,2.045 C -0.914,2.045 0,1.129 0,0"
         style="fill:#f68944;fill-opacity:1;fill-rule:nonzero;stroke:none"
         id="path3969" />
    </g>
    <g
       id="g3971"
       transform="matrix(1.25,0,0,-1.25,238.99395,239.25137)">
      <path
         inkscape:connector-curvature="0"
         d="M 0,0 -0.124,0 C -0.126,-1.061 -0.983,-1.92 -2.043,-1.922 -3.108,-1.92 -3.965,-1.061 -3.965,0 c 0,1.06 0.857,1.919 1.922,1.921 C -0.983,1.919 -0.126,1.06 -0.124,0 l 0.248,0 c 0,1.197 -0.97,2.169 -2.167,2.169 -1.201,0 -2.169,-0.972 -2.171,-2.169 0.002,-1.198 0.97,-2.17 2.171,-2.17 1.197,0 2.167,0.972 2.167,2.17 L 0,0"
         style="fill:#100f0d;fill-opacity:1;fill-rule:nonzero;stroke:none"
         id="path3973" />
    </g>
    <g
       id="g3975"
       transform="matrix(1.25,0,0,-1.25,248.94145,242.09387)">
      <path
         inkscape:connector-curvature="0"
         d="m 0,0 c 0,-1.129 -0.918,-2.044 -2.047,-2.044 -1.129,0 -2.046,0.915 -2.046,2.044 0,1.13 0.917,2.046 2.046,2.046 C -0.918,2.046 0,1.13 0,0"
         style="fill:#f68944;fill-opacity:1;fill-rule:nonzero;stroke:none"
         id="path3977" />
    </g>
    <g
       id="g3979"
       transform="matrix(1.25,0,0,-1.25,248.94145,242.09387)">
      <path
         inkscape:connector-curvature="0"
         d="m 0,0 -0.125,0 c -0.002,-1.061 -0.861,-1.918 -1.922,-1.92 -1.061,0.002 -1.92,0.859 -1.922,1.92 0.002,1.06 0.861,1.92 1.922,1.922 C -0.986,1.92 -0.127,1.06 -0.125,0 l 0.249,0 c -0.001,1.198 -0.974,2.17 -2.171,2.17 -1.198,0 -2.17,-0.972 -2.17,-2.17 0,-1.199 0.972,-2.168 2.17,-2.168 1.197,0 2.17,0.969 2.171,2.168 L 0,0"
         style="fill:#100f0d;fill-opacity:1;fill-rule:nonzero;stroke:none"
         id="path3981" />
    </g>
    <g
       id="g3983"
       transform="matrix(1.25,0,0,-1.25,259.1202,236.00262)">
      <path
         inkscape:connector-curvature="0"
         d="m 0,0 c -14.544,0 -27.712,6.213 -37.246,16.26 -9.533,10.047 -15.429,23.927 -15.429,39.261 l -0.225,0 c 0,-15.392 5.92,-29.328 15.492,-39.416 C -27.836,6.016 -14.61,-0.224 0,-0.224 L 0,0"
         style="fill:#100f0d;fill-opacity:1;fill-rule:nonzero;stroke:none"
         id="path3985" />
    </g>
    <g
       id="g3987"
       transform="matrix(1.25,0,0,-1.25,259.14145,239.92262)">
      <path
         inkscape:connector-curvature="0"
         d="M 0,0 C -15.388,0 -29.317,6.572 -39.403,17.201 -49.487,27.83 -55.727,42.514 -55.727,58.734 l -0.224,0 c 0,-16.278 6.261,-31.019 16.385,-41.689 C -29.442,6.376 -15.452,-0.226 0,-0.226 L 0,0"
         style="fill:#100f0d;fill-opacity:1;fill-rule:nonzero;stroke:none"
         id="path3989" />
    </g>
    <g
       id="g3991"
       transform="matrix(1.25,0,0,-1.25,257.1077,239.84512)">
      <path
         inkscape:connector-curvature="0"
         d="m 0,0 c -10.902,0.302 -21.57,4.079 -30.587,10.822 -11.925,8.92 -20.096,22.509 -22.609,37.603 -0.522,3.126 -0.725,5.256 -0.856,8.929 l -0.039,1.151 2.751,0 0.049,-1.471 c 0.282,-8.534 2.106,-16.16 5.618,-23.517 4.654,-9.741 11.872,-17.774 20.954,-23.313 C -17.51,5.807 -8.636,3.111 -0.637,2.889 0.085,2.867 0.873,2.833 1.118,2.814 l 0.444,-0.04 0,-2.823 -0.444,0.015 C 0.873,-0.027 0.372,-0.013 0,0"
         style="fill:#69cff3;fill-opacity:1;fill-rule:nonzero;stroke:none"
         id="path3993" />
    </g>
    <g
       id="g3995"
       transform="matrix(1.25,0,0,-1.25,-226.05856,996.76137)">
      <g
         id="g3997"
         clip-path="url(#clipPath3999)">
        <g
           id="g4003"
           transform="translate(327.832,586.447)">
          <path
             inkscape:connector-curvature="0"
             d="M 0,0 2.002,7.245 3.771,0.005 1.964,1.75 0,0"
             style="fill:#ed1e24;fill-opacity:1;fill-rule:nonzero;stroke:none"
             id="path4005" />
        </g>
        <g
           id="g4007"
           transform="translate(327.832,586.447)">
          <path
             inkscape:connector-curvature="0"
             d="M 0,0 0.239,-0.066 1.987,6.26 3.327,0.779 1.97,2.088 -0.165,0.185 0,0 0.239,-0.066 0,0 0.165,-0.185 1.956,1.411 4.216,-0.769 2.017,8.23 -0.464,-0.746 0.165,-0.185 0,0"
             style="fill:#ed1e24;fill-opacity:1;fill-rule:nonzero;stroke:none"
             id="path4009" />
        </g>
        <g
           id="g4011"
           transform="translate(329.506,588.427)">
          <path
             inkscape:connector-curvature="0"
             d="m 0,0 0,-7.136 c 0,-0.137 0.111,-0.249 0.248,-0.249 0.137,0 0.248,0.112 0.248,0.249 L 0.496,0 C 0.496,0.137 0.385,0.248 0.248,0.248 0.111,0.248 0,0.137 0,0"
             style="fill:#ed1e24;fill-opacity:1;fill-rule:nonzero;stroke:none"
             id="path4013" />
        </g>
      </g>
    </g>
    <g
       id="g4015"
       transform="matrix(1.25,0,0,-1.25,252.30895,263.13012)">
      <path
         inkscape:connector-curvature="0"
         d="M 0,0 2.002,7.248 3.77,0.005 1.961,1.752 0,0"
         style="fill:#57c035;fill-opacity:1;fill-rule:nonzero;stroke:none"
         id="path4017" />
    </g>
    <g
       id="g4019"
       transform="matrix(1.25,0,0,-1.25,-226.05856,996.76137)">
      <g
         id="g4021"
         clip-path="url(#clipPath4023)">
        <g
           id="g4027"
           transform="translate(382.694,586.905)">
          <path
             inkscape:connector-curvature="0"
             d="M 0,0 0.24,-0.066 1.988,6.261 3.324,0.779 1.968,2.09 -0.165,0.185 0,0 0.24,-0.066 0,0 0.166,-0.185 1.955,1.413 4.215,-0.77 2.017,8.233 -0.464,-0.747 0.166,-0.185 0,0"
             style="fill:#57c035;fill-opacity:1;fill-rule:nonzero;stroke:none"
             id="path4029" />
        </g>
        <g
           id="g4031"
           transform="translate(384.365,588.887)">
          <path
             inkscape:connector-curvature="0"
             d="m 0,0 0,-7.596 c 0,-0.137 0.112,-0.249 0.248,-0.249 0.138,0 0.248,0.112 0.248,0.249 l 0,7.596 c 0,0.138 -0.11,0.248 -0.248,0.248 C 0.112,0.248 0,0.138 0,0"
             style="fill:#57c035;fill-opacity:1;fill-rule:nonzero;stroke:none"
             id="path4033" />
        </g>
      </g>
    </g>
    <g
       id="g4035"
       transform="matrix(1.25,0,0,-1.25,203.0852,242.01387)">
      <path
         inkscape:connector-curvature="0"
         d="m 0,0 c -0.248,0.057 -0.451,0.192 -0.597,0.418 -0.148,0.215 -0.215,0.474 -0.215,0.779 0,0.226 0.079,0.61 0.248,1.151 0.17,0.554 0.249,1.005 0.249,1.355 0,0.35 -0.079,0.633 -0.249,0.847 -0.158,0.215 -0.384,0.316 -0.677,0.316 -0.113,0 -0.226,-0.022 -0.35,-0.056 L -1.626,4.607 c 0.035,0 0.057,0 0.069,0 0.259,0 0.395,-0.192 0.395,-0.576 0,-0.181 -0.056,-0.474 -0.17,-0.87 -0.203,-0.734 -0.304,-1.286 -0.304,-1.659 0,-0.429 0.146,-0.802 0.428,-1.14 0.294,-0.339 0.666,-0.542 1.141,-0.599 l -0.666,-2.303 0.553,0 0.666,2.292 c 0.553,0 1.051,0.101 1.467,0.316 0.43,0.214 0.78,0.508 1.04,0.892 0.259,0.373 0.497,0.915 0.71,1.603 L 4.099,3.85 C 4.257,4.347 4.494,4.607 4.81,4.607 l 0,0.214 C 4.708,4.855 4.619,4.866 4.517,4.866 4.201,4.866 3.884,4.731 3.591,4.448 3.287,4.177 3.049,3.749 2.869,3.173 L 2.518,1.976 C 2.292,1.175 2.022,0.644 1.717,0.384 1.412,0.125 1.017,-0.011 0.554,-0.011 L 1.92,4.742 1.367,4.742 0,0"
         style="fill:#100f0d;fill-opacity:1;fill-rule:nonzero;stroke:none"
         id="path4037" />
    </g>
    <g
       id="g4039"
       transform="matrix(1.25,0,0,-1.25,209.62895,240.61762)">
      <path
         inkscape:connector-curvature="0"
         d="m 0,0 0,-0.159 c 0.184,0.033 0.31,0.042 0.369,0.042 0.075,0 0.134,-0.017 0.176,-0.051 0.042,-0.042 0.067,-0.092 0.067,-0.15 0,-0.076 -0.05,-0.261 -0.134,-0.563 l -0.571,-1.854 c -0.075,-0.235 -0.108,-0.412 -0.108,-0.512 0,-0.101 0.033,-0.176 0.1,-0.244 0.068,-0.067 0.151,-0.1 0.26,-0.1 0.159,0 0.327,0.067 0.512,0.21 0.235,0.184 0.445,0.419 0.621,0.696 L 1.149,-2.593 C 1.007,-2.819 0.864,-2.987 0.721,-3.113 0.671,-3.155 0.629,-3.172 0.587,-3.172 c -0.025,0 -0.059,0.009 -0.076,0.042 -0.025,0.025 -0.042,0.059 -0.042,0.101 0,0.033 0.034,0.151 0.093,0.352 L 1.418,0.227 0,0 z M 0.948,1.737 C 0.873,1.653 0.831,1.561 0.831,1.443 0.831,1.334 0.873,1.234 0.948,1.15 1.032,1.074 1.133,1.032 1.242,1.032 c 0.108,0 0.209,0.042 0.293,0.118 0.076,0.084 0.118,0.184 0.118,0.293 0,0.118 -0.042,0.21 -0.118,0.294 C 1.451,1.813 1.359,1.855 1.242,1.855 1.124,1.855 1.032,1.813 0.948,1.737"
         style="fill:#100f0d;fill-opacity:1;fill-rule:nonzero;stroke:none"
         id="path4041" />
    </g>
    <g
       id="g4043"
       transform="matrix(1.25,0,0,-1.25,187.3102,224.52387)">
      <path
         inkscape:connector-curvature="0"
         d="m 0,0 0.056,-0.2 0.201,0.033 c 0.111,0.011 0.19,0.022 0.223,0.022 0.1,0 0.178,-0.033 0.246,-0.089 0.056,-0.056 0.089,-0.134 0.089,-0.212 0,-0.078 -0.056,-0.324 -0.179,-0.726 l -0.982,-3.427 0.815,0 0.257,0.904 c 0.122,0.357 0.278,0.704 0.469,1.005 0.345,0.581 0.68,1.061 0.993,1.44 0.324,0.38 0.625,0.647 0.916,0.804 0.156,0.089 0.29,0.134 0.401,0.134 0.068,0 0.134,-0.023 0.19,-0.067 0.045,-0.045 0.078,-0.101 0.078,-0.179 0,-0.156 -0.056,-0.368 -0.145,-0.636 L 2.903,-3.382 C 2.769,-3.806 2.691,-4.108 2.691,-4.276 c 0,-0.133 0.044,-0.245 0.122,-0.323 0.067,-0.078 0.168,-0.123 0.302,-0.123 0.156,0 0.334,0.067 0.536,0.201 0.29,0.201 0.591,0.536 0.915,1.005 L 4.399,-3.404 C 4.198,-3.717 4.008,-3.951 3.84,-4.097 3.784,-4.141 3.74,-4.164 3.695,-4.164 c -0.022,0 -0.056,0.012 -0.079,0.045 -0.033,0.033 -0.043,0.078 -0.043,0.123 0,0.055 0.043,0.212 0.133,0.48 l 0.748,2.277 c 0.112,0.358 0.179,0.648 0.179,0.86 0,0.212 -0.067,0.379 -0.19,0.514 -0.122,0.133 -0.29,0.2 -0.48,0.2 -0.357,0 -0.725,-0.156 -1.116,-0.48 C 2.456,-0.457 1.908,-1.127 1.183,-2.132 L 1.886,0.335 0,0"
         style="fill:#100f0d;fill-opacity:1;fill-rule:nonzero;stroke:none"
         id="path4045" />
    </g>
    <g
       id="g4047"
       transform="matrix(1.25,0,0,-1.25,380.39016,157.48137)">
      <path
         inkscape:connector-curvature="0"
         d="m 0,0 0,22.12 c 0,0.177 -0.087,0.319 -0.192,0.319 -0.108,0 -0.194,-0.142 -0.194,-0.319 l 0,-22.12 c 0,-0.177 0.086,-0.32 0.194,-0.32 C -0.087,-0.32 0,-0.177 0,0"
         style="fill:#f68944;fill-opacity:1;fill-rule:nonzero;stroke:none"
         id="path4049" />
    </g>
    <g
       id="g4051"
       transform="matrix(1.25,0,0,-1.25,388.95266,166.89512)">
      <path
         inkscape:connector-curvature="0"
         d="m 0,0 0,22.423 c 0,0.176 -0.087,0.32 -0.193,0.32 -0.106,0 -0.193,-0.144 -0.193,-0.32 L -0.386,0 c 0,-0.177 0.087,-0.319 0.193,-0.319 C -0.087,-0.319 0,-0.177 0,0"
         style="fill:#f68944;fill-opacity:1;fill-rule:nonzero;stroke:none"
         id="path4053" />
    </g>
    <g
       id="g4055"
       transform="matrix(1.25,0,0,-1.25,393.51516,169.29762)">
      <path
         inkscape:connector-curvature="0"
         d="m 0,0 0,22.387 c 0,0.177 -0.086,0.319 -0.192,0.319 -0.107,0 -0.194,-0.142 -0.194,-0.319 L -0.386,0 c 0,-0.177 0.087,-0.319 0.194,-0.319 C -0.086,-0.319 0,-0.177 0,0"
         style="fill:#f68944;fill-opacity:1;fill-rule:nonzero;stroke:none"
         id="path4057" />
    </g>
    <g
       id="g4059"
       transform="matrix(1.25,0,0,-1.25,398.85396,171.35512)">
      <path
         inkscape:connector-curvature="0"
         d="m 0,0 0,22.343 c 0,0.177 -0.085,0.32 -0.193,0.32 -0.106,0 -0.193,-0.143 -0.193,-0.32 L -0.386,0 c 0,-0.176 0.087,-0.32 0.193,-0.32 C -0.085,-0.32 0,-0.176 0,0"
         style="fill:#f68944;fill-opacity:1;fill-rule:nonzero;stroke:none"
         id="path4061" />
    </g>
    <g
       id="g4063"
       transform="matrix(1.25,0,0,-1.25,404.52646,172.80387)">
      <path
         inkscape:connector-curvature="0"
         d="m 0,0 0,22.166 c 0,0.178 -0.086,0.32 -0.193,0.32 -0.107,0 -0.193,-0.142 -0.193,-0.32 L -0.386,0 c 0,-0.176 0.086,-0.319 0.193,-0.319 C -0.086,-0.319 0,-0.176 0,0"
         style="fill:#f68944;fill-opacity:1;fill-rule:nonzero;stroke:none"
         id="path4065" />
    </g>
    <g
       id="g4067"
       transform="matrix(1.25,0,0,-1.25,410.46516,173.73762)">
      <path
         inkscape:connector-curvature="0"
         d="m 0,0 0,22.247 c 0,0.177 -0.086,0.32 -0.194,0.32 -0.106,0 -0.192,-0.143 -0.192,-0.32 L -0.386,0 c 0,-0.176 0.086,-0.319 0.192,-0.319 C -0.086,-0.319 0,-0.176 0,0"
         style="fill:#f68944;fill-opacity:1;fill-rule:nonzero;stroke:none"
         id="path4069" />
    </g>
    <g
       id="g4071"
       transform="matrix(1.25,0,0,-1.25,416.54516,174.02512)">
      <path
         inkscape:connector-curvature="0"
         d="m 0,0 0,22.298 c 0,0.176 -0.086,0.32 -0.192,0.32 -0.107,0 -0.194,-0.144 -0.194,-0.32 L -0.386,0 c 0,-0.176 0.087,-0.319 0.194,-0.319 C -0.086,-0.319 0,-0.176 0,0"
         style="fill:#f68944;fill-opacity:1;fill-rule:nonzero;stroke:none"
         id="path4073" />
    </g>
    <g
       id="g4075"
       transform="matrix(1.25,0,0,-1.25,382.76396,161.77137)">
      <path
         inkscape:connector-curvature="0"
         d="m 0,0 0,22.379 c 0,0.177 -0.087,0.32 -0.194,0.32 -0.106,0 -0.193,-0.143 -0.193,-0.32 L -0.387,0 c 0,-0.177 0.087,-0.32 0.193,-0.32 C -0.087,-0.32 0,-0.177 0,0"
         style="fill:#f68944;fill-opacity:1;fill-rule:nonzero;stroke:none"
         id="path4077" />
    </g>
    <g
       id="g4079"
       transform="matrix(1.25,0,0,-1.25,452.74146,157.57262)">
      <path
         inkscape:connector-curvature="0"
         d="m 0,0 0,22.203 c 0,0.177 -0.087,0.319 -0.194,0.319 -0.106,0 -0.193,-0.142 -0.193,-0.319 L -0.387,0 c 0,-0.176 0.087,-0.319 0.193,-0.319 C -0.087,-0.319 0,-0.176 0,0"
         style="fill:#f68944;fill-opacity:1;fill-rule:nonzero;stroke:none"
         id="path4081" />
    </g>
    <g
       id="g4083"
       transform="matrix(1.25,0,0,-1.25,447.62516,164.63137)">
      <path
         inkscape:connector-curvature="0"
         d="m 0,0 0,22.49 c 0,0.177 -0.086,0.32 -0.192,0.32 -0.107,0 -0.194,-0.143 -0.194,-0.32 l 0,-22.49 c 0,-0.178 0.087,-0.32 0.194,-0.32 C -0.086,-0.32 0,-0.178 0,0"
         style="fill:#f68944;fill-opacity:1;fill-rule:nonzero;stroke:none"
         id="path4085" />
    </g>
    <g
       id="g4087"
       transform="matrix(1.25,0,0,-1.25,444.17396,167.18887)">
      <path
         inkscape:connector-curvature="0"
         d="m 0,0 0,22.668 c 0,0.176 -0.084,0.319 -0.192,0.319 -0.106,0 -0.193,-0.143 -0.193,-0.319 L -0.385,0 c 0,-0.177 0.087,-0.32 0.193,-0.32 C -0.084,-0.32 0,-0.177 0,0"
         style="fill:#f68944;fill-opacity:1;fill-rule:nonzero;stroke:none"
         id="path4089" />
    </g>
    <g
       id="g4091"
       transform="matrix(1.25,0,0,-1.25,439.61516,169.48637)">
      <path
         inkscape:connector-curvature="0"
         d="m 0,0 0,22.547 c 0,0.177 -0.086,0.319 -0.193,0.319 -0.106,0 -0.193,-0.142 -0.193,-0.319 L -0.386,0 c 0,-0.177 0.087,-0.319 0.193,-0.319 C -0.086,-0.319 0,-0.177 0,0"
         style="fill:#f68944;fill-opacity:1;fill-rule:nonzero;stroke:none"
         id="path4093" />
    </g>
    <g
       id="g4095"
       transform="matrix(1.25,0,0,-1.25,434.27646,171.54637)">
      <path
         inkscape:connector-curvature="0"
         d="m 0,0 0,22.507 c 0,0.175 -0.086,0.319 -0.193,0.319 -0.106,0 -0.192,-0.144 -0.192,-0.319 L -0.385,0 c 0,-0.176 0.086,-0.319 0.192,-0.319 C -0.086,-0.319 0,-0.176 0,0"
         style="fill:#f68944;fill-opacity:1;fill-rule:nonzero;stroke:none"
         id="path4097" />
    </g>
    <g
       id="g4099"
       transform="matrix(1.25,0,0,-1.25,428.60396,172.99137)">
      <path
         inkscape:connector-curvature="0"
         d="m 0,0 0,22.327 c 0,0.175 -0.085,0.319 -0.192,0.319 -0.107,0 -0.193,-0.144 -0.193,-0.319 L -0.385,0 c 0,-0.176 0.086,-0.319 0.193,-0.319 C -0.085,-0.319 0,-0.176 0,0"
         style="fill:#f68944;fill-opacity:1;fill-rule:nonzero;stroke:none"
         id="path4101" />
    </g>
    <g
       id="g4103"
       transform="matrix(1.25,0,0,-1.25,422.66516,173.72387)">
      <path
         inkscape:connector-curvature="0"
         d="m 0,0 0,22.246 c 0,0.176 -0.085,0.319 -0.192,0.319 -0.107,0 -0.193,-0.143 -0.193,-0.319 L -0.385,0 c 0,-0.177 0.086,-0.32 0.193,-0.32 C -0.085,-0.32 0,-0.177 0,0"
         style="fill:#f68944;fill-opacity:1;fill-rule:nonzero;stroke:none"
         id="path4105" />
    </g>
    <g
       id="g4107"
       transform="matrix(1.25,0,0,-1.25,450.36896,161.76012)">
      <path
         inkscape:connector-curvature="0"
         d="m 0,0 0,22.381 c 0,0.176 -0.086,0.318 -0.193,0.318 -0.107,0 -0.194,-0.142 -0.194,-0.318 L -0.387,0 c 0,-0.176 0.087,-0.319 0.194,-0.319 C -0.086,-0.319 0,-0.176 0,0"
         style="fill:#f68944;fill-opacity:1;fill-rule:nonzero;stroke:none"
         id="path4109" />
    </g>
    <g
       id="g4111"
       transform="matrix(1.25,0,0,-1.25,385.50396,164.33887)">
      <path
         inkscape:connector-curvature="0"
         d="m 0,0 0,22.247 c 0,0.176 -0.086,0.319 -0.192,0.319 -0.107,0 -0.193,-0.143 -0.193,-0.319 L -0.385,0 c 0,-0.176 0.086,-0.319 0.193,-0.319 C -0.086,-0.319 0,-0.176 0,0"
         style="fill:#f68944;fill-opacity:1;fill-rule:nonzero;stroke:none"
         id="path4113" />
    </g>
    <g
       id="g4115"
       transform="matrix(1.25,0,0,-1.25,453.22266,153.07887)">
      <path
         inkscape:connector-curvature="0"
         d="m 0,0 c 0.001,-2.197 -0.784,-4.335 -2.264,-6.325 -2.214,-2.98 -5.959,-5.553 -10.682,-7.365 -4.722,-1.815 -10.422,-2.876 -16.56,-2.876 -8.182,-0.001 -15.591,1.888 -20.937,4.928 -2.672,1.52 -4.829,3.328 -6.304,5.313 -1.479,1.99 -2.264,4.128 -2.263,6.325 0,0.176 -0.086,0.319 -0.193,0.319 -0.107,0 -0.193,-0.143 -0.193,-0.319 10e-4,-2.466 0.878,-4.769 2.405,-6.821 2.294,-3.079 6.081,-5.662 10.837,-7.492 4.757,-1.826 10.485,-2.891 16.648,-2.892 8.219,10e-4 15.66,1.893 21.062,4.964 2.702,1.536 4.895,3.365 6.424,5.42 1.527,2.052 2.405,4.355 2.406,6.821 0,0.176 -0.087,0.319 -0.194,0.319 C 0.086,0.319 0,0.176 0,0"
         style="fill:#100f0d;fill-opacity:1;fill-rule:nonzero;stroke:none"
         id="path4117" />
    </g>
    <path
       inkscape:connector-curvature="0"
       d="m 378.97016,153.07887 0.4838,0 0,-28.9125 -0.4838,0 0,28.9125 z"
       style="fill:#100f0d;fill-opacity:1;fill-rule:nonzero;stroke:none"
       id="path4119" />
    <g
       id="g4121"
       transform="matrix(1.25,0,0,-1.25,-226.05856,996.76137)">
      <g
         id="g4123"
         clip-path="url(#clipPath4125)">
        <path
           inkscape:connector-curvature="0"
           d="m 543.427,674.696 0.385,0 0,23 -0.385,0 0,-23 z"
           style="fill:#100f0d;fill-opacity:1;fill-rule:nonzero;stroke:none"
           id="path4129" />
        <g
           id="g4131"
           transform="translate(543.617,697.549)">
          <path
             inkscape:connector-curvature="0"
             d="m 0,0 -0.192,0 c 0.001,-2.198 -0.784,-4.336 -2.264,-6.324 -2.214,-2.98 -5.959,-5.554 -10.682,-7.367 -4.722,-1.814 -10.422,-2.875 -16.56,-2.875 -8.182,0 -15.591,1.888 -20.937,4.929 -2.672,1.519 -4.829,3.327 -6.304,5.313 -1.479,1.988 -2.264,4.126 -2.263,6.324 -0.001,2.197 0.784,4.336 2.263,6.324 2.214,2.98 5.958,5.554 10.68,7.366 4.723,1.814 10.424,2.876 16.561,2.875 8.183,10e-4 15.591,-1.887 20.936,-4.928 2.673,-1.519 4.831,-3.328 6.306,-5.313 C -0.976,4.336 -0.191,2.197 -0.192,0 l 0.386,0 c -0.001,2.465 -0.879,4.768 -2.406,6.82 -2.294,3.081 -6.082,5.662 -10.839,7.492 -4.756,1.827 -10.483,2.892 -16.647,2.892 -8.219,-0.001 -15.66,-1.892 -21.062,-4.963 -2.702,-1.536 -4.893,-3.366 -6.423,-5.421 -1.527,-2.052 -2.404,-4.355 -2.405,-6.82 10e-4,-2.466 0.878,-4.769 2.405,-6.821 2.294,-3.08 6.081,-5.662 10.837,-7.491 4.757,-1.827 10.485,-2.892 16.648,-2.892 8.219,0 15.66,1.892 21.062,4.963 2.702,1.537 4.895,3.366 6.424,5.42 1.527,2.052 2.405,4.355 2.406,6.821 L 0,0"
             style="fill:#100f0d;fill-opacity:1;fill-rule:nonzero;stroke:none"
             id="path4133" />
        </g>
      </g>
    </g>
    <g
       id="g4135"
       transform="matrix(1.25,0,0,-1.25,383.26896,170.28012)">
      <path
         inkscape:connector-curvature="0"
         d="M 0,0 C -0.01,0.329 -0.016,0.659 -0.02,0.988 L -0.516,0.982 c 0.003,-0.333 0.01,-0.664 0.019,-0.995 L 0,0 z m 0.148,-2.962 c -0.024,0.328 -0.046,0.657 -0.064,0.987 l -0.496,-0.028 c 0.019,-0.333 0.041,-0.665 0.064,-0.996 l 0.496,0.037 z m 0.284,-2.953 c -0.04,0.327 -0.076,0.654 -0.11,0.983 l -0.494,-0.051 c 0.034,-0.331 0.071,-0.661 0.11,-0.99 l 0.494,0.058 z M 0.85,-8.851 c -0.054,0.324 -0.105,0.65 -0.154,0.977 L 0.205,-7.948 c 0.049,-0.33 0.102,-0.657 0.156,-0.985 l 0.489,0.082 z m 0.555,-2.914 c -0.068,0.322 -0.136,0.645 -0.2,0.969 l -0.486,-0.097 c 0.064,-0.327 0.131,-0.651 0.201,-0.976 l 0.485,0.104 z m 0.691,-2.884 c -0.085,0.317 -0.166,0.637 -0.246,0.957 l -0.482,-0.119 c 0.081,-0.323 0.163,-0.645 0.248,-0.965 l 0.48,0.127 z m 0.824,-2.85 c -0.1,0.315 -0.196,0.629 -0.29,0.946 l -0.476,-0.142 c 0.095,-0.319 0.193,-0.637 0.292,-0.953 l 0.474,0.149 z m 0.957,-2.807 c -0.114,0.309 -0.226,0.619 -0.334,0.93 l -0.469,-0.163 c 0.11,-0.314 0.223,-0.627 0.337,-0.938 l 0.466,0.171 z m 1.089,-2.759 c -0.129,0.304 -0.254,0.607 -0.378,0.914 l -0.46,-0.186 c 0.124,-0.308 0.251,-0.615 0.381,-0.92 l 0.457,0.192 z m 1.218,-2.704 c -0.142,0.297 -0.283,0.595 -0.42,0.895 l -0.452,-0.208 c 0.139,-0.302 0.281,-0.602 0.424,-0.901 l 0.448,0.214 z m 1.345,-2.643 c -0.156,0.289 -0.31,0.58 -0.463,0.873 l -0.439,-0.228 c 0.152,-0.296 0.308,-0.589 0.465,-0.881 l 0.437,0.236 z m 1.465,-2.567 c -0.169,0.28 -0.336,0.563 -0.501,0.847 l -0.43,-0.249 c 0.167,-0.287 0.336,-0.572 0.506,-0.854 l 0.426,0.256 -10e-4,0 z m 1.587,-2.495 c -0.183,0.272 -0.363,0.547 -0.542,0.822 l -0.417,-0.269 c 0.181,-0.278 0.362,-0.555 0.547,-0.83 l 0.412,0.277 z m 1.706,-2.417 c -0.196,0.264 -0.391,0.529 -0.582,0.796 l -0.403,-0.289 c 0.193,-0.269 0.388,-0.536 0.586,-0.802 l 0.399,0.295 z m 1.819,-2.331 c -0.208,0.254 -0.414,0.509 -0.619,0.766 l -0.388,-0.308 c 0.206,-0.259 0.414,-0.517 0.624,-0.773 l 0.383,0.315 z m 1.933,-2.241 c -0.221,0.243 -0.439,0.489 -0.656,0.736 l -0.373,-0.328 c 0.218,-0.249 0.438,-0.496 0.662,-0.741 l 0.367,0.333 z m 2.041,-2.144 c -0.233,0.231 -0.463,0.466 -0.692,0.703 l -0.357,-0.346 c 0.231,-0.238 0.463,-0.474 0.697,-0.709 l 0.352,0.352 z m 2.144,-2.042 c -0.244,0.221 -0.486,0.444 -0.726,0.669 l -0.339,-0.363 c 0.242,-0.226 0.485,-0.451 0.732,-0.673 l 0.333,0.367 z m 2.245,-1.932 c -0.255,0.208 -0.508,0.419 -0.759,0.632 l -0.321,-0.379 c 0.253,-0.214 0.508,-0.427 0.765,-0.636 l 0.315,0.383 z m 2.339,-1.817 c -0.264,0.196 -0.529,0.393 -0.791,0.593 l -0.3,-0.394 c 0.263,-0.202 0.529,-0.401 0.797,-0.598 l 0.294,0.399 z m 2.429,-1.696 c -0.274,0.182 -0.548,0.365 -0.819,0.551 l -0.28,-0.409 c 0.273,-0.188 0.549,-0.373 0.826,-0.556 l 0.273,0.414 z m 2.515,-1.571 c -0.284,0.168 -0.567,0.337 -0.848,0.51 l -0.259,-0.424 c 0.285,-0.173 0.569,-0.345 0.855,-0.512 l 0.252,0.426 z m 2.593,-1.438 c -0.292,0.153 -0.583,0.307 -0.872,0.465 l -0.238,-0.436 c 0.292,-0.159 0.586,-0.315 0.881,-0.469 l 0.229,0.44 z m 2.667,-1.301 c -0.3,0.137 -0.599,0.276 -0.897,0.419 l -0.214,-0.448 c 0.3,-0.144 0.603,-0.284 0.906,-0.423 l 0.205,0.452 z m 2.733,-1.159 c -0.308,0.121 -0.613,0.245 -0.918,0.371 l -0.19,-0.459 c 0.307,-0.127 0.616,-0.252 0.926,-0.374 l 0.182,0.462 z m 2.792,-1.013 c -0.313,0.105 -0.626,0.212 -0.937,0.321 l -0.166,-0.468 c 0.315,-0.111 0.629,-0.218 0.947,-0.324 l 0.156,0.471 z m 2.844,-0.863 c -0.319,0.088 -0.637,0.179 -0.953,0.271 l -0.14,-0.476 c 0.319,-0.094 0.641,-0.185 0.962,-0.273 l 0.131,0.478 z m 2.885,-0.707 c -0.323,0.07 -0.644,0.142 -0.964,0.219 l -0.114,-0.484 c 0.324,-0.076 0.648,-0.15 0.973,-0.22 l 0.105,0.485 z m 2.913,-0.551 c -0.327,0.053 -0.651,0.109 -0.974,0.166 l -0.089,-0.488 c 0.327,-0.059 0.654,-0.115 0.983,-0.168 l 0.08,0.49 z m 2.937,-0.393 c -0.327,0.035 -0.655,0.073 -0.981,0.114 l -0.062,-0.493 c 0.329,-0.041 0.66,-0.079 0.99,-0.115 l 0.053,0.494 z m 2.955,-0.236 c -0.329,0.018 -0.659,0.039 -0.986,0.061 L 54.05,-59.76 c 0.331,-0.023 0.663,-0.044 0.995,-0.061 l 0.026,0.495 z m 2.963,-0.078 c -0.33,0 -0.659,0.003 -0.988,0.009 l -0.009,-0.497 c 0.332,-0.005 0.664,-0.008 0.997,-0.008 l 0,0.496"
         style="fill:#c8c7c5;fill-opacity:1;fill-rule:nonzero;stroke:none"
         id="path4137" />
    </g>
    <g
       id="g4139"
       transform="matrix(1.25,0,0,-1.25,385.62646,170.73512)">
      <path
         inkscape:connector-curvature="0"
         d="m 0,0 c 0,-1.129 -0.915,-2.045 -2.045,-2.045 -1.13,0 -2.046,0.916 -2.046,2.045 0,1.13 0.916,2.046 2.046,2.046 C -0.915,2.046 0,1.13 0,0"
         style="fill:#f68944;fill-opacity:1;fill-rule:nonzero;stroke:none"
         id="path4141" />
    </g>
    <g
       id="g4143"
       transform="matrix(1.25,0,0,-1.25,385.62646,170.73512)">
      <path
         inkscape:connector-curvature="0"
         d="M 0,0 -0.124,0 C -0.126,-1.06 -0.984,-1.919 -2.045,-1.921 -3.107,-1.919 -3.964,-1.06 -3.967,0 -3.964,1.062 -3.107,1.92 -2.045,1.922 -0.984,1.92 -0.126,1.062 -0.124,0 l 0.248,0 c 0,1.198 -0.971,2.171 -2.169,2.171 -1.199,0 -2.169,-0.973 -2.17,-2.171 10e-4,-1.197 0.971,-2.169 2.17,-2.169 1.198,0 2.169,0.972 2.169,2.169 L 0,0"
         style="fill:#100f0d;fill-opacity:1;fill-rule:nonzero;stroke:none"
         id="path4145" />
    </g>
    <g
       id="g4147"
       transform="matrix(1.25,0,0,-1.25,385.85646,175.89137)">
      <path
         inkscape:connector-curvature="0"
         d="m 0,0 c 0,-1.129 -0.915,-2.043 -2.045,-2.043 -1.13,0 -2.046,0.914 -2.046,2.043 0,1.13 0.916,2.047 2.046,2.047 C -0.915,2.047 0,1.13 0,0"
         style="fill:#f68944;fill-opacity:1;fill-rule:nonzero;stroke:none"
         id="path4149" />
    </g>
    <g
       id="g4151"
       transform="matrix(1.25,0,0,-1.25,385.85646,175.89137)">
      <path
         inkscape:connector-curvature="0"
         d="M 0,0 -0.124,0 C -0.126,-1.061 -0.983,-1.919 -2.045,-1.919 -3.106,-1.917 -3.964,-1.061 -3.967,0 -3.964,1.061 -3.106,1.921 -2.045,1.922 -0.983,1.921 -0.126,1.061 -0.124,0 l 0.248,0 c 0,1.198 -0.97,2.171 -2.169,2.171 -1.198,0 -2.17,-0.973 -2.17,-2.171 0,-1.198 0.972,-2.167 2.17,-2.167 1.199,0.002 2.169,0.969 2.169,2.167 L 0,0"
         style="fill:#100f0d;fill-opacity:1;fill-rule:nonzero;stroke:none"
         id="path4153" />
    </g>
    <g
       id="g4155"
       transform="matrix(1.25,0,0,-1.25,386.36646,181.02012)">
      <path
         inkscape:connector-curvature="0"
         d="m 0,0 c 0,-1.13 -0.917,-2.046 -2.045,-2.046 -1.13,0 -2.047,0.916 -2.047,2.046 0,1.13 0.917,2.043 2.047,2.043 C -0.917,2.043 0,1.13 0,0"
         style="fill:#f68944;fill-opacity:1;fill-rule:nonzero;stroke:none"
         id="path4157" />
    </g>
    <g
       id="g4159"
       transform="matrix(1.25,0,0,-1.25,386.36646,181.02012)">
      <path
         inkscape:connector-curvature="0"
         d="m 0,0 -0.124,0 c -0.002,-1.061 -0.861,-1.92 -1.921,-1.921 -1.062,0.001 -1.92,0.86 -1.922,1.921 0.002,1.061 0.86,1.919 1.922,1.919 C -0.985,1.917 -0.126,1.061 -0.124,0 l 0.248,0 c 0,1.198 -0.971,2.167 -2.169,2.167 C -3.244,2.165 -4.215,1.198 -4.216,0 c 0.001,-1.199 0.972,-2.17 2.171,-2.17 1.198,0 2.169,0.971 2.169,2.17 L 0,0"
         style="fill:#100f0d;fill-opacity:1;fill-rule:nonzero;stroke:none"
         id="path4161" />
    </g>
    <g
       id="g4163"
       transform="matrix(1.25,0,0,-1.25,456.02266,244.60637)">
      <path
         inkscape:connector-curvature="0"
         d="m 0,0 c 0,-1.128 -0.915,-2.043 -2.046,-2.043 -1.129,0 -2.045,0.915 -2.045,2.043 0,1.13 0.916,2.046 2.045,2.046 C -0.915,2.046 0,1.13 0,0"
         style="fill:#f68944;fill-opacity:1;fill-rule:nonzero;stroke:none"
         id="path4165" />
    </g>
    <g
       id="g4167"
       transform="matrix(1.25,0,0,-1.25,456.02266,244.60637)">
      <path
         inkscape:connector-curvature="0"
         d="M 0,0 -0.124,0 C -0.126,-1.06 -0.983,-1.917 -2.046,-1.919 -3.106,-1.917 -3.965,-1.06 -3.967,0 -3.965,1.061 -3.106,1.92 -2.046,1.922 -0.984,1.92 -0.126,1.061 -0.124,0 l 0.248,0 c 0,1.199 -0.971,2.17 -2.17,2.17 -1.197,0 -2.169,-0.971 -2.169,-2.17 0,-1.197 0.972,-2.167 2.169,-2.167 1.199,0 2.17,0.97 2.17,2.167 L 0,0"
         style="fill:#100f0d;fill-opacity:1;fill-rule:nonzero;stroke:none"
         id="path4169" />
    </g>
    <g
       id="g4171"
       transform="matrix(1.25,0,0,-1.25,450.84396,244.43887)">
      <path
         inkscape:connector-curvature="0"
         d="m 0,0 c 0,-1.13 -0.916,-2.046 -2.044,-2.046 -1.131,0 -2.046,0.916 -2.046,2.046 0,1.129 0.915,2.046 2.046,2.046 C -0.916,2.046 0,1.129 0,0"
         style="fill:#f68944;fill-opacity:1;fill-rule:nonzero;stroke:none"
         id="path4173" />
    </g>
    <g
       id="g4175"
       transform="matrix(1.25,0,0,-1.25,450.84396,244.43887)">
      <path
         inkscape:connector-curvature="0"
         d="m 0,0 -0.124,0 c -0.002,-1.061 -0.86,-1.92 -1.92,-1.922 -1.062,0.002 -1.92,0.861 -1.922,1.922 0.002,1.061 0.86,1.92 1.922,1.921 1.06,-0.001 1.918,-0.86 1.92,-1.921 l 0.249,0 c 0,1.198 -0.972,2.17 -2.169,2.17 -1.2,0 -2.17,-0.972 -2.17,-2.17 0,-1.199 0.97,-2.17 2.17,-2.17 1.197,0 2.169,0.971 2.169,2.17 L 0,0"
         style="fill:#100f0d;fill-opacity:1;fill-rule:nonzero;stroke:none"
         id="path4177" />
    </g>
    <g
       id="g4179"
       transform="matrix(1.25,0,0,-1.25,445.71896,243.71887)">
      <path
         inkscape:connector-curvature="0"
         d="m 0,0 c 0,-1.128 -0.916,-2.046 -2.046,-2.046 -1.129,0 -2.046,0.918 -2.046,2.046 0,1.131 0.917,2.046 2.046,2.046 C -0.916,2.046 0,1.131 0,0"
         style="fill:#f68944;fill-opacity:1;fill-rule:nonzero;stroke:none"
         id="path4181" />
    </g>
    <g
       id="g4183"
       transform="matrix(1.25,0,0,-1.25,445.71896,243.71887)">
      <path
         inkscape:connector-curvature="0"
         d="M 0,0 -0.124,0 C -0.126,-1.06 -0.986,-1.919 -2.046,-1.921 -3.107,-1.919 -3.966,-1.06 -3.968,0 -3.966,1.061 -3.107,1.92 -2.046,1.922 -0.986,1.92 -0.126,1.061 -0.124,0 l 0.248,0 c 0,1.2 -0.971,2.17 -2.17,2.17 -1.198,0 -2.17,-0.97 -2.17,-2.17 0,-1.197 0.972,-2.169 2.17,-2.17 1.199,10e-4 2.17,0.973 2.17,2.17 L 0,0"
         style="fill:#100f0d;fill-opacity:1;fill-rule:nonzero;stroke:none"
         id="path4185" />
    </g>
    <g
       id="g4187"
       transform="matrix(1.25,0,0,-1.25,440.67646,242.47262)">
      <path
         inkscape:connector-curvature="0"
         d="m 0,0 c 0,-1.129 -0.915,-2.043 -2.046,-2.043 -1.129,0 -2.045,0.914 -2.045,2.043 0,1.129 0.916,2.046 2.045,2.046 C -0.915,2.046 0,1.129 0,0"
         style="fill:#f68944;fill-opacity:1;fill-rule:nonzero;stroke:none"
         id="path4189" />
    </g>
    <g
       id="g4191"
       transform="matrix(1.25,0,0,-1.25,440.67646,242.47262)">
      <path
         inkscape:connector-curvature="0"
         d="m 0,0 -0.124,0 c -0.002,-1.061 -0.86,-1.917 -1.922,-1.919 -1.061,0.002 -1.919,0.858 -1.921,1.919 0.002,1.061 0.86,1.92 1.921,1.922 C -0.985,1.92 -0.126,1.061 -0.124,0 l 0.249,0 c 0,1.198 -0.972,2.17 -2.171,2.17 -1.197,0 -2.169,-0.972 -2.169,-2.17 0,-1.198 0.972,-2.167 2.169,-2.167 1.199,0 2.171,0.969 2.171,2.167 L 0,0"
         style="fill:#100f0d;fill-opacity:1;fill-rule:nonzero;stroke:none"
         id="path4193" />
    </g>
    <g
       id="g4195"
       transform="matrix(1.25,0,0,-1.25,387.49396,186.11137)">
      <path
         inkscape:connector-curvature="0"
         d="m 0,0 c 0,-1.129 -0.916,-2.045 -2.046,-2.045 -1.13,0 -2.046,0.916 -2.046,2.045 0,1.129 0.916,2.046 2.046,2.046 C -0.916,2.046 0,1.129 0,0"
         style="fill:#f68944;fill-opacity:1;fill-rule:nonzero;stroke:none"
         id="path4197" />
    </g>
    <g
       id="g4199"
       transform="matrix(1.25,0,0,-1.25,387.49396,186.11137)">
      <path
         inkscape:connector-curvature="0"
         d="M 0,0 -0.124,0 C -0.126,-1.06 -0.985,-1.92 -2.046,-1.921 -3.108,-1.92 -3.965,-1.06 -3.968,0 -3.965,1.061 -3.108,1.921 -2.046,1.922 -0.985,1.921 -0.126,1.061 -0.124,0 l 0.248,0 c 0,1.199 -0.972,2.171 -2.17,2.171 -1.198,0 -2.169,-0.972 -2.17,-2.171 0.001,-1.198 0.972,-2.17 2.17,-2.17 1.198,0 2.17,0.972 2.17,2.17 L 0,0"
         style="fill:#100f0d;fill-opacity:1;fill-rule:nonzero;stroke:none"
         id="path4201" />
    </g>
    <g
       id="g4203"
       transform="matrix(1.25,0,0,-1.25,403.91516,222.08137)">
      <path
         inkscape:connector-curvature="0"
         d="m 0,0 -13.103,-13.104 c -0.139,-0.137 -0.139,-0.361 0,-0.5 0.138,-0.138 0.361,-0.138 0.499,0 L 0.499,-0.499 C 0.637,-0.361 0.637,-0.138 0.499,0 0.362,0.138 0.138,0.138 0,0"
         style="fill:#100f0d;fill-opacity:1;fill-rule:nonzero;stroke:none"
         id="path4205" />
    </g>
    <g
       id="g4207"
       transform="matrix(1.25,0,0,-1.25,390.34396,236.27637)">
      <path
         inkscape:connector-curvature="0"
         d="M 0,0 0.001,1.998 -2.496,-2.497 1.998,0 0,0"
         style="fill:#100f0d;fill-opacity:1;fill-rule:evenodd;stroke:none"
         id="path4209" />
    </g>
    <g
       id="g4211"
       transform="matrix(1.25,0,0,-1.25,390.34396,236.27637)">
      <path
         inkscape:connector-curvature="0"
         d="M 0,0 0.177,0 0.178,2.679 -2.951,-2.951 2.68,0.176 0,0.176 0,0 0.177,0 0,0 l 0,-0.177 1.317,0 -3.359,-1.865 1.866,3.358 -0.001,-1.493 0.177,0 L 0,0"
         style="fill:#100f0d;fill-opacity:1;fill-rule:nonzero;stroke:none"
         id="path4213" />
    </g>
    <g
       id="g4215"
       transform="matrix(1.25,0,0,-1.25,403.87766,222.45387)">
      <path
         inkscape:connector-curvature="0"
         d="m 0,0 0,-11.063 c 0,-0.25 0.123,-0.454 0.275,-0.454 0.151,0 0.274,0.204 0.274,0.454 L 0.549,0 C 0.549,0.251 0.426,0.453 0.275,0.453 0.123,0.453 0,0.251 0,0"
         style="fill:#100f0d;fill-opacity:1;fill-rule:nonzero;stroke:none"
         id="path4217" />
    </g>
    <g
       id="g4219"
       transform="matrix(1.25,0,0,-1.25,404.04266,234.53137)">
      <path
         inkscape:connector-curvature="0"
         d="M 0,0 0.004,0.235 C -2.491,0.274 -4.87,1.302 -6.607,3.097 L -6.777,2.933 -6.613,2.764 -0.097,9.069 -0.235,0.004 0,0 0.004,0.235 0,0 0.236,-0.003 0.383,9.63 C 0.385,9.725 0.329,9.812 0.241,9.849 0.153,9.887 0.053,9.868 -0.016,9.802 L -6.94,3.102 -7.013,2.937 -6.946,2.769 c 1.825,-1.885 4.323,-2.964 6.943,-3.004 L 0.164,-0.169 0.236,-0.003 0,0"
         style="fill:#100f0d;fill-opacity:1;fill-rule:nonzero;stroke:none"
         id="path4221" />
    </g>
    <g
       id="g4223"
       transform="matrix(1.25,0,0,-1.25,402.87396,243.72262)">
      <path
         inkscape:connector-curvature="0"
         d="m 0,0 c 0.25,0.842 0.456,1.388 0.615,1.626 0.147,0.24 0.33,0.353 0.523,0.353 0.329,0 0.488,-0.318 0.488,-0.955 0,-0.751 -0.204,-1.49 -0.602,-2.207 C 0.626,-1.899 0.057,-2.286 -0.682,-2.332 L 0,0 z m -0.785,-2.639 c 1.013,0.035 1.798,0.41 2.344,1.115 0.557,0.705 0.83,1.502 0.83,2.389 0,0.5 -0.102,0.898 -0.296,1.194 C 1.9,2.366 1.626,2.514 1.263,2.514 1.013,2.514 0.786,2.434 0.558,2.275 0.341,2.116 0.148,1.877 0,1.57 -0.159,1.251 -0.33,0.773 -0.511,0.137 l -0.751,-2.48 c -0.603,0.023 -0.899,0.467 -0.899,1.308 0,0.694 0.182,1.41 0.546,2.139 0.375,0.728 0.808,1.137 1.297,1.216 l 0.057,0.194 C -1.046,2.491 -1.706,2.139 -2.229,1.456 -2.763,0.785 -3.025,0.012 -3.025,-0.841 c 0,-0.558 0.148,-0.99 0.443,-1.308 0.296,-0.319 0.717,-0.49 1.251,-0.49 l -0.681,-2.308 0.568,0 0.659,2.308"
         style="fill:#100f0d;fill-opacity:1;fill-rule:nonzero;stroke:none"
         id="path4225" />
    </g>
    <g
       id="g4227"
       transform="matrix(1.25,0,0,-1.25,407.15896,245.75512)">
      <path
         inkscape:connector-curvature="0"
         d="m 0,0 0,-0.145 c 0.167,0.031 0.28,0.039 0.334,0.039 0.069,0 0.121,-0.016 0.159,-0.046 0.038,-0.038 0.061,-0.083 0.061,-0.137 0,-0.068 -0.046,-0.234 -0.121,-0.507 l -0.516,-1.676 c -0.068,-0.213 -0.098,-0.372 -0.098,-0.463 0,-0.091 0.03,-0.159 0.09,-0.22 0.061,-0.06 0.137,-0.091 0.236,-0.091 0.143,0 0.295,0.061 0.462,0.19 0.213,0.167 0.402,0.379 0.561,0.629 L 1.039,-2.343 C 0.91,-2.548 0.781,-2.7 0.653,-2.813 0.607,-2.851 0.569,-2.867 0.531,-2.867 c -0.023,0 -0.053,0.008 -0.068,0.038 -0.023,0.023 -0.038,0.054 -0.038,0.091 0,0.031 0.03,0.137 0.083,0.319 L 1.281,0.205 0,0 z M 0.857,1.569 C 0.789,1.494 0.751,1.41 0.751,1.304 0.751,1.206 0.789,1.114 0.857,1.039 0.933,0.97 1.024,0.932 1.122,0.932 c 0.099,0 0.19,0.038 0.266,0.107 0.068,0.075 0.106,0.167 0.106,0.265 0,0.106 -0.038,0.19 -0.106,0.265 C 1.312,1.638 1.229,1.675 1.122,1.675 1.017,1.675 0.933,1.638 0.857,1.569"
         style="fill:#100f0d;fill-opacity:1;fill-rule:nonzero;stroke:none"
         id="path4229" />
    </g>
    <g
       id="g4231"
       transform="matrix(1.25,0,0,-1.25,381.20396,262.12387)">
      <path
         inkscape:connector-curvature="0"
         d="M 0,0 2.001,7.247 3.77,0.004 1.96,1.752 0,0"
         style="fill:#ed1e24;fill-opacity:1;fill-rule:nonzero;stroke:none"
         id="path4233" />
    </g>
    <g
       id="g4235"
       transform="matrix(1.25,0,0,-1.25,-226.05856,996.76137)">
      <g
         id="g4237"
         clip-path="url(#clipPath4239)">
        <g
           id="g4243"
           transform="translate(485.81,587.71)">
          <path
             inkscape:connector-curvature="0"
             d="M 0,0 0.239,-0.067 1.988,6.262 3.326,0.778 1.966,2.091 -0.166,0.185 0,0 0.239,-0.067 0,0 0.165,-0.186 1.954,1.413 4.216,-0.77 2.016,8.233 -0.464,-0.748 0.165,-0.186 0,0"
             style="fill:#ed1e24;fill-opacity:1;fill-rule:nonzero;stroke:none"
             id="path4245" />
        </g>
        <g
           id="g4247"
           transform="translate(487.483,589.692)">
          <path
             inkscape:connector-curvature="0"
             d="m 0,0 0,-8.401 c 0,-0.137 0.112,-0.249 0.248,-0.249 0.137,0 0.248,0.112 0.248,0.249 L 0.496,0 C 0.496,0.137 0.385,0.248 0.248,0.248 0.112,0.248 0,0.137 0,0"
             style="fill:#ed1e24;fill-opacity:1;fill-rule:nonzero;stroke:none"
             id="path4249" />
        </g>
      </g>
    </g>
    <g
       id="g4251"
       transform="matrix(1.25,0,0,-1.25,449.77896,262.98387)">
      <path
         inkscape:connector-curvature="0"
         d="M 0,0 2.002,7.246 3.771,0.004 1.961,1.749 0,0"
         style="fill:#57c035;fill-opacity:1;fill-rule:nonzero;stroke:none"
         id="path4253" />
    </g>
    <g
       id="g4255"
       transform="matrix(1.25,0,0,-1.25,449.77896,262.98387)">
      <path
         inkscape:connector-curvature="0"
         d="M 0,0 0.239,-0.067 1.987,6.261 3.327,0.777 1.967,2.088 -0.165,0.185 0,0 0.239,-0.067 0,0 0.165,-0.186 1.954,1.41 4.216,-0.77 2.016,8.232 -0.464,-0.747 0.165,-0.186 0,0"
         style="fill:#57c035;fill-opacity:1;fill-rule:nonzero;stroke:none"
         id="path4257" />
    </g>
    <g
       id="g4259"
       transform="matrix(1.25,0,0,-1.25,451.87016,260.50887)">
      <path
         inkscape:connector-curvature="0"
         d="m 0,0 0,-7.711 c 0,-0.137 0.111,-0.249 0.249,-0.249 0.137,0 0.248,0.112 0.248,0.249 L 0.497,0 C 0.497,0.137 0.386,0.247 0.249,0.247 0.111,0.247 0,0.137 0,0"
         style="fill:#57c035;fill-opacity:1;fill-rule:nonzero;stroke:none"
         id="path4261" />
    </g>
    <g
       id="g4263"
       transform="matrix(1.25,0,0,-1.25,381.11016,229.33762)">
      <path
         inkscape:connector-curvature="0"
         d="m 0,0 0.051,-0.183 0.184,0.031 c 0.101,0.01 0.173,0.02 0.203,0.02 0.092,0 0.163,-0.03 0.223,-0.082 0.052,-0.05 0.082,-0.122 0.082,-0.193 0,-0.071 -0.05,-0.295 -0.163,-0.662 l -0.895,-3.124 0.743,0 0.233,0.824 c 0.113,0.326 0.255,0.641 0.428,0.916 0.316,0.529 0.621,0.967 0.906,1.314 0.295,0.345 0.571,0.59 0.835,0.732 0.143,0.082 0.265,0.123 0.367,0.123 0.06,0 0.122,-0.021 0.172,-0.061 0.041,-0.041 0.072,-0.092 0.072,-0.163 0,-0.143 -0.051,-0.336 -0.132,-0.581 L 2.647,-3.084 C 2.525,-3.47 2.453,-3.745 2.453,-3.898 c 0,-0.122 0.041,-0.224 0.113,-0.295 0.06,-0.071 0.152,-0.112 0.274,-0.112 0.143,0 0.306,0.061 0.488,0.183 0.265,0.183 0.54,0.489 0.835,0.916 L 4.011,-3.104 C 3.827,-3.389 3.655,-3.603 3.502,-3.735 3.451,-3.776 3.41,-3.797 3.369,-3.797 c -0.02,0 -0.05,0.011 -0.071,0.041 -0.03,0.031 -0.041,0.072 -0.041,0.112 0,0.052 0.041,0.194 0.122,0.438 l 0.683,2.076 c 0.101,0.327 0.163,0.591 0.163,0.785 C 4.225,-0.152 4.163,0 4.051,0.122 3.94,0.245 3.786,0.306 3.614,0.306 3.288,0.306 2.952,0.163 2.596,-0.132 2.24,-0.417 1.741,-1.028 1.079,-1.944 L 1.721,0.306 0,0"
         style="fill:#100f0d;fill-opacity:1;fill-rule:nonzero;stroke:none"
         id="path4265" />
    </g>
    <text
       id="text4703"
       x="-261.10934"
       y="593.77374"
       style="font-size:15px">
      <tspan
         style="font-size:11.20800018px;font-variant:normal;font-weight:normal;writing-mode:lr-tb;fill:#000000;fill-opacity:1;fill-rule:nonzero;stroke:none;font-family:MTEX;-inkscape-font-specification:MTEX"
         x="-261.10934"
         y="593.77374"
         id="tspan4705"></tspan>
    </text>
    <text
       id="text4711"
       x="-243.37932"
       y="589.16125"
       style="font-size:15px">
      <tspan
         style="font-size:11.20800018px;font-variant:normal;font-weight:normal;writing-mode:lr-tb;fill:#000000;fill-opacity:1;fill-rule:nonzero;stroke:none;font-family:MTEX;-inkscape-font-specification:MTEX"
         x="-243.37932"
         y="589.16125"
         id="tspan4713"></tspan>
    </text>
  </g>
</svg>
